<svg width="1342" height="634" viewBox="0 0 1342 634" fill="none" xmlns="http://www.w3.org/2000/svg">
<g filter="url(#filter0_d_9707_616)">
<path d="M31 91.5L81 31.5H281L331 91.5H494.5H1271L1311 141.5V161.5V400.5V491.5V532.5V562.5L1271 602H1000H555.5H101L31 532.5V441.5V320.5V111.5V91.5Z" fill="#14916C" fill-opacity="0.1" shape-rendering="crispEdges"/>
<path d="M73 602H31V559.5L73 602Z" fill="#14916C" fill-opacity="0.1" shape-rendering="crispEdges"/>
<path d="M1311 491.5V532.5V562.5L1271 602H1000M1311 491.5H1070L1000 562.5V602M1311 491.5V400.5V161.5V141.5L1271 91.5H494.5M31 441.5V532.5L101 602H555.5M31 441.5V320.5V111.5V91.5L81 31.5H281L331 91.5H494.5M31 441.5H121.5L171.5 387.5H410M1000 602H555.5M555.5 602V536.5L494.5 476.5V184M494.5 91.5V144.5M31 602H73L31 559.5V602Z" stroke="#8EFCDC" stroke-width="2" stroke-linejoin="round" shape-rendering="crispEdges"/>
</g>
<g filter="url(#filter1_d_9707_616)">
<path d="M1303 371.5L1311 361.5V422.5L1303 412.5V371.5Z" fill="#8EFCDC"/>
<path d="M39 121.5L31 111.5V179.5L39 169.5V121.5Z" fill="#8EFCDC"/>
<path d="M31 591.5V603H42L31 591.5Z" fill="#8EFCDC"/>
<path d="M1303 371.5L1311 361.5V422.5L1303 412.5V371.5Z" stroke="#8EFCDC" stroke-width="2" stroke-linejoin="round"/>
<path d="M39 121.5L31 111.5V179.5L39 169.5V121.5Z" stroke="#8EFCDC" stroke-width="2" stroke-linejoin="round"/>
<path d="M31 591.5V603H42L31 591.5Z" stroke="#8EFCDC" stroke-width="2" stroke-linejoin="round"/>
</g>
<g filter="url(#filter2_d_9707_616)">
<path d="M109.606 92.5H100.431L91.2569 82.5H100.431L109.606 92.5Z" fill="#8EFCDC"/>
<path d="M127.954 92.5H118.78L109.606 82.5H118.78L127.954 92.5Z" fill="#8EFCDC"/>
<path d="M146.303 92.5H137.128L127.954 82.5H137.128L146.303 92.5Z" fill="#8EFCDC"/>
<path d="M164.651 92.5H155.477L146.303 82.5H155.477L164.651 92.5Z" fill="#8EFCDC"/>
<path d="M183 92.5H173.826L164.651 82.5H173.826L183 92.5Z" fill="#8EFCDC"/>
<path d="M201.349 92.5H192.174L183 82.5H192.174L201.349 92.5Z" fill="#8EFCDC"/>
<path d="M219.697 92.5H210.523L201.349 82.5H210.523L219.697 92.5Z" fill="#8EFCDC"/>
<path d="M238.046 92.5H228.872L219.697 82.5H228.872L238.046 92.5Z" fill="#8EFCDC"/>
<path d="M256.394 92.5H247.22L238.046 82.5H247.22L256.394 92.5Z" fill="#8EFCDC"/>
<path d="M274.743 92.5H265.569L256.394 82.5H265.569L274.743 92.5Z" fill="#8EFCDC"/>
<path d="M91.2569 92.5H83V83.5L91.2569 92.5Z" fill="#8EFCDC"/>
<path d="M274.743 82.5L283 91.5V82.5H274.743Z" fill="#8EFCDC"/>
<path d="M109.606 92.5H100.431L91.2569 82.5H100.431L109.606 92.5Z" stroke="#8EFCDC" stroke-width="2" stroke-linejoin="round"/>
<path d="M127.954 92.5H118.78L109.606 82.5H118.78L127.954 92.5Z" stroke="#8EFCDC" stroke-width="2" stroke-linejoin="round"/>
<path d="M146.303 92.5H137.128L127.954 82.5H137.128L146.303 92.5Z" stroke="#8EFCDC" stroke-width="2" stroke-linejoin="round"/>
<path d="M164.651 92.5H155.477L146.303 82.5H155.477L164.651 92.5Z" stroke="#8EFCDC" stroke-width="2" stroke-linejoin="round"/>
<path d="M183 92.5H173.826L164.651 82.5H173.826L183 92.5Z" stroke="#8EFCDC" stroke-width="2" stroke-linejoin="round"/>
<path d="M201.349 92.5H192.174L183 82.5H192.174L201.349 92.5Z" stroke="#8EFCDC" stroke-width="2" stroke-linejoin="round"/>
<path d="M219.697 92.5H210.523L201.349 82.5H210.523L219.697 92.5Z" stroke="#8EFCDC" stroke-width="2" stroke-linejoin="round"/>
<path d="M238.046 92.5H228.872L219.697 82.5H228.872L238.046 92.5Z" stroke="#8EFCDC" stroke-width="2" stroke-linejoin="round"/>
<path d="M256.394 92.5H247.22L238.046 82.5H247.22L256.394 92.5Z" stroke="#8EFCDC" stroke-width="2" stroke-linejoin="round"/>
<path d="M274.743 92.5H265.569L256.394 82.5H265.569L274.743 92.5Z" stroke="#8EFCDC" stroke-width="2" stroke-linejoin="round"/>
<path d="M91.2569 92.5H83V83.5L91.2569 92.5Z" stroke="#8EFCDC" stroke-width="2" stroke-linejoin="round"/>
<path d="M274.743 82.5L283 91.5V82.5H274.743Z" stroke="#8EFCDC" stroke-width="2" stroke-linejoin="round"/>
</g>
<defs>
<filter id="filter0_d_9707_616" x="0" y="0.5" width="1342" height="632.5" filterUnits="userSpaceOnUse" color-interpolation-filters="sRGB">
<feFlood flood-opacity="0" result="BackgroundImageFix"/>
<feColorMatrix in="SourceAlpha" type="matrix" values="0 0 0 0 0 0 0 0 0 0 0 0 0 0 0 0 0 0 127 0" result="hardAlpha"/>
<feOffset/>
<feGaussianBlur stdDeviation="15"/>
<feComposite in2="hardAlpha" operator="out"/>
<feColorMatrix type="matrix" values="0 0 0 0 0.556863 0 0 0 0 0.988235 0 0 0 0 0.862745 0 0 0 0.2 0"/>
<feBlend mode="normal" in2="BackgroundImageFix" result="effect1_dropShadow_9707_616"/>
<feBlend mode="normal" in="SourceGraphic" in2="effect1_dropShadow_9707_616" result="shape"/>
</filter>
<filter id="filter1_d_9707_616" x="0" y="80.4999" width="1342" height="553.5" filterUnits="userSpaceOnUse" color-interpolation-filters="sRGB">
<feFlood flood-opacity="0" result="BackgroundImageFix"/>
<feColorMatrix in="SourceAlpha" type="matrix" values="0 0 0 0 0 0 0 0 0 0 0 0 0 0 0 0 0 0 127 0" result="hardAlpha"/>
<feOffset/>
<feGaussianBlur stdDeviation="15"/>
<feComposite in2="hardAlpha" operator="out"/>
<feColorMatrix type="matrix" values="0 0 0 0 0.556863 0 0 0 0 0.988235 0 0 0 0 0.862745 0 0 0 0.7 0"/>
<feBlend mode="normal" in2="BackgroundImageFix" result="effect1_dropShadow_9707_616"/>
<feBlend mode="normal" in="SourceGraphic" in2="effect1_dropShadow_9707_616" result="shape"/>
</filter>
<filter id="filter2_d_9707_616" x="52" y="51.5" width="262" height="72" filterUnits="userSpaceOnUse" color-interpolation-filters="sRGB">
<feFlood flood-opacity="0" result="BackgroundImageFix"/>
<feColorMatrix in="SourceAlpha" type="matrix" values="0 0 0 0 0 0 0 0 0 0 0 0 0 0 0 0 0 0 127 0" result="hardAlpha"/>
<feOffset/>
<feGaussianBlur stdDeviation="15"/>
<feComposite in2="hardAlpha" operator="out"/>
<feColorMatrix type="matrix" values="0 0 0 0 0.556863 0 0 0 0 0.988235 0 0 0 0 0.862745 0 0 0 0.7 0"/>
<feBlend mode="normal" in2="BackgroundImageFix" result="effect1_dropShadow_9707_616"/>
<feBlend mode="normal" in="SourceGraphic" in2="effect1_dropShadow_9707_616" result="shape"/>
</filter>
</defs>
</svg>
