<svg width="1402" height="693" viewBox="0 0 1402 693" fill="none" xmlns="http://www.w3.org/2000/svg">
<g filter="url(#filter0_d_9707_617)">
<path d="M61 121.5L111 61.5H311L361 121.5H524.5H1301L1341 171.5V191.5V430.5V521.5V562.5V592.5L1301 632H1030H585.5H131L61 562.5V471.5V350.5V141.5V121.5Z" fill="#14916C" fill-opacity="0.65" shape-rendering="crispEdges"/>
<path d="M103 632H61V589.5L103 632Z" fill="#14916C" fill-opacity="0.65" shape-rendering="crispEdges"/>
<path d="M1341 521.5V562.5V592.5L1301 632H1030M1341 521.5H1100L1030 592.5V632M1341 521.5V430.5V191.5V171.5L1301 121.5H524.5M61 471.5V562.5L131 632H585.5M61 471.5V350.5V141.5V121.5L111 61.5H311L361 121.5H524.5M61 471.5H151.5L201.5 417.5H440M1030 632H585.5M585.5 632V566.5L524.5 506.5V214M524.5 121.5V174.5M61 632H103L61 589.5V632Z" stroke="#8EFCDC" stroke-width="2" stroke-linejoin="round" shape-rendering="crispEdges"/>
</g>
<g filter="url(#filter1_d_9707_617)">
<path d="M1333 401.5L1341 391.5V452.5L1333 442.5V401.5Z" fill="#8EFCDC"/>
<path d="M69 151.5L61 141.5V209.5L69 199.5V151.5Z" fill="#8EFCDC"/>
<path d="M61 621.5V633H72L61 621.5Z" fill="#8EFCDC"/>
<path d="M1333 401.5L1341 391.5V452.5L1333 442.5V401.5Z" stroke="#8EFCDC" stroke-width="2" stroke-linejoin="round"/>
<path d="M69 151.5L61 141.5V209.5L69 199.5V151.5Z" stroke="#8EFCDC" stroke-width="2" stroke-linejoin="round"/>
<path d="M61 621.5V633H72L61 621.5Z" stroke="#8EFCDC" stroke-width="2" stroke-linejoin="round"/>
</g>
<g filter="url(#filter2_d_9707_617)">
<path d="M139.606 122.5H130.431L121.257 112.5H130.431L139.606 122.5Z" fill="#8EFCDC"/>
<path d="M157.954 122.5H148.78L139.606 112.5H148.78L157.954 122.5Z" fill="#8EFCDC"/>
<path d="M176.303 122.5H167.128L157.954 112.5H167.128L176.303 122.5Z" fill="#8EFCDC"/>
<path d="M194.651 122.5H185.477L176.303 112.5H185.477L194.651 122.5Z" fill="#8EFCDC"/>
<path d="M213 122.5H203.826L194.651 112.5H203.826L213 122.5Z" fill="#8EFCDC"/>
<path d="M231.349 122.5H222.174L213 112.5H222.174L231.349 122.5Z" fill="#8EFCDC"/>
<path d="M249.697 122.5H240.523L231.349 112.5H240.523L249.697 122.5Z" fill="#8EFCDC"/>
<path d="M268.046 122.5H258.872L249.697 112.5H258.872L268.046 122.5Z" fill="#8EFCDC"/>
<path d="M286.394 122.5H277.22L268.046 112.5H277.22L286.394 122.5Z" fill="#8EFCDC"/>
<path d="M304.743 122.5H295.569L286.394 112.5H295.569L304.743 122.5Z" fill="#8EFCDC"/>
<path d="M121.257 122.5H113V113.5L121.257 122.5Z" fill="#8EFCDC"/>
<path d="M304.743 112.5L313 121.5V112.5H304.743Z" fill="#8EFCDC"/>
<path d="M139.606 122.5H130.431L121.257 112.5H130.431L139.606 122.5Z" stroke="#8EFCDC" stroke-width="2" stroke-linejoin="round"/>
<path d="M157.954 122.5H148.78L139.606 112.5H148.78L157.954 122.5Z" stroke="#8EFCDC" stroke-width="2" stroke-linejoin="round"/>
<path d="M176.303 122.5H167.128L157.954 112.5H167.128L176.303 122.5Z" stroke="#8EFCDC" stroke-width="2" stroke-linejoin="round"/>
<path d="M194.651 122.5H185.477L176.303 112.5H185.477L194.651 122.5Z" stroke="#8EFCDC" stroke-width="2" stroke-linejoin="round"/>
<path d="M213 122.5H203.826L194.651 112.5H203.826L213 122.5Z" stroke="#8EFCDC" stroke-width="2" stroke-linejoin="round"/>
<path d="M231.349 122.5H222.174L213 112.5H222.174L231.349 122.5Z" stroke="#8EFCDC" stroke-width="2" stroke-linejoin="round"/>
<path d="M249.697 122.5H240.523L231.349 112.5H240.523L249.697 122.5Z" stroke="#8EFCDC" stroke-width="2" stroke-linejoin="round"/>
<path d="M268.046 122.5H258.872L249.697 112.5H258.872L268.046 122.5Z" stroke="#8EFCDC" stroke-width="2" stroke-linejoin="round"/>
<path d="M286.394 122.5H277.22L268.046 112.5H277.22L286.394 122.5Z" stroke="#8EFCDC" stroke-width="2" stroke-linejoin="round"/>
<path d="M304.743 122.5H295.569L286.394 112.5H295.569L304.743 122.5Z" stroke="#8EFCDC" stroke-width="2" stroke-linejoin="round"/>
<path d="M121.257 122.5H113V113.5L121.257 122.5Z" stroke="#8EFCDC" stroke-width="2" stroke-linejoin="round"/>
<path d="M304.743 112.5L313 121.5V112.5H304.743Z" stroke="#8EFCDC" stroke-width="2" stroke-linejoin="round"/>
</g>
<defs>
<filter id="filter0_d_9707_617" x="0" y="0.5" width="1402" height="692.5" filterUnits="userSpaceOnUse" color-interpolation-filters="sRGB">
<feFlood flood-opacity="0" result="BackgroundImageFix"/>
<feColorMatrix in="SourceAlpha" type="matrix" values="0 0 0 0 0 0 0 0 0 0 0 0 0 0 0 0 0 0 127 0" result="hardAlpha"/>
<feOffset/>
<feGaussianBlur stdDeviation="30"/>
<feComposite in2="hardAlpha" operator="out"/>
<feColorMatrix type="matrix" values="0 0 0 0 0.556863 0 0 0 0 0.988235 0 0 0 0 0.862745 0 0 0 0.3 0"/>
<feBlend mode="normal" in2="BackgroundImageFix" result="effect1_dropShadow_9707_617"/>
<feBlend mode="normal" in="SourceGraphic" in2="effect1_dropShadow_9707_617" result="shape"/>
</filter>
<filter id="filter1_d_9707_617" x="30" y="110.5" width="1342" height="553.5" filterUnits="userSpaceOnUse" color-interpolation-filters="sRGB">
<feFlood flood-opacity="0" result="BackgroundImageFix"/>
<feColorMatrix in="SourceAlpha" type="matrix" values="0 0 0 0 0 0 0 0 0 0 0 0 0 0 0 0 0 0 127 0" result="hardAlpha"/>
<feOffset/>
<feGaussianBlur stdDeviation="15"/>
<feComposite in2="hardAlpha" operator="out"/>
<feColorMatrix type="matrix" values="0 0 0 0 0.556863 0 0 0 0 0.988235 0 0 0 0 0.862745 0 0 0 0.7 0"/>
<feBlend mode="normal" in2="BackgroundImageFix" result="effect1_dropShadow_9707_617"/>
<feBlend mode="normal" in="SourceGraphic" in2="effect1_dropShadow_9707_617" result="shape"/>
</filter>
<filter id="filter2_d_9707_617" x="82" y="81.5" width="262" height="72" filterUnits="userSpaceOnUse" color-interpolation-filters="sRGB">
<feFlood flood-opacity="0" result="BackgroundImageFix"/>
<feColorMatrix in="SourceAlpha" type="matrix" values="0 0 0 0 0 0 0 0 0 0 0 0 0 0 0 0 0 0 127 0" result="hardAlpha"/>
<feOffset/>
<feGaussianBlur stdDeviation="15"/>
<feComposite in2="hardAlpha" operator="out"/>
<feColorMatrix type="matrix" values="0 0 0 0 0.556863 0 0 0 0 0.988235 0 0 0 0 0.862745 0 0 0 0.7 0"/>
<feBlend mode="normal" in2="BackgroundImageFix" result="effect1_dropShadow_9707_617"/>
<feBlend mode="normal" in="SourceGraphic" in2="effect1_dropShadow_9707_617" result="shape"/>
</filter>
</defs>
</svg>
