<svg width="375" height="637" viewBox="0 0 375 637" fill="none" xmlns="http://www.w3.org/2000/svg">
<g filter="url(#filter0_d_9702_609)">
<path d="M30 62.0163L56.001 31H159.389L185.235 62.0163H271.574H324.322L345 87.8632V98.2019V270.444V303V540.5V570.073V585.581L324.322 606H194.022H66.3397L30 570.073V549.179V248.444V72.355V62.0163Z" fill="#14916C" fill-opacity="0.1" shape-rendering="crispEdges"/>
<path d="M51.8655 606H30V584.03L51.8655 606Z" fill="#14916C" fill-opacity="0.1" shape-rendering="crispEdges"/>
<path d="M345 540.5V570.073V585.581L324.322 606H194.022M345 540.5H220.418L194.022 567V606M345 540.5V303M194.022 606H66.3397L30 570.073V549.179V248.444M30 248.444V72.355V62.0163L56.001 31H159.389L185.235 62.0163H271.574M30 248.444H76L104.5 218.444H256.925M271.574 62.0163H324.322L345 87.8632V98.2019V270.444V303M271.574 62.0163V91.5M271.574 111.5V188.5V252L300.018 270.444V303H345M30 606H51.8655L30 584.03V606Z" stroke="#8EFCDC" stroke-linejoin="round" shape-rendering="crispEdges"/>
</g>
<g filter="url(#filter1_d_9702_609)">
<path d="M33.5001 259.136L30.0001 253.967V285.5L33.5001 280.331V259.136Z" fill="#8EFCDC"/>
<path d="M34.2896 77.0075L30.1541 71.8381V106.99L34.2896 101.82V77.0075Z" fill="#8EFCDC"/>
<path d="M30.1541 600.055V606H35.8404L30.1541 600.055Z" fill="#8EFCDC"/>
<path d="M33.5001 259.136L30.0001 253.967V285.5L33.5001 280.331V259.136Z" stroke="#8EFCDC" stroke-linejoin="round"/>
<path d="M34.2896 77.0075L30.1541 71.8381V106.99L34.2896 101.82V77.0075Z" stroke="#8EFCDC" stroke-linejoin="round"/>
<path d="M30.1541 600.055V606H35.8404L30.1541 600.055Z" stroke="#8EFCDC" stroke-linejoin="round"/>
</g>
<g filter="url(#filter2_d_9702_609)">
<path d="M73.1697 61.95H68.6284L64.0872 57H68.6284L73.1697 61.95Z" fill="#8EFCDC"/>
<path d="M82.2523 61.95H77.711L73.1697 57H77.711L82.2523 61.95Z" fill="#8EFCDC"/>
<path d="M91.3349 61.95H86.7936L82.2523 57H86.7936L91.3349 61.95Z" fill="#8EFCDC"/>
<path d="M100.417 61.95H95.8761L91.3349 57H95.8761L100.417 61.95Z" fill="#8EFCDC"/>
<path d="M109.5 61.95H104.959L100.417 57H104.959L109.5 61.95Z" fill="#8EFCDC"/>
<path d="M118.583 61.95H114.041L109.5 57H114.041L118.583 61.95Z" fill="#8EFCDC"/>
<path d="M127.665 61.95H123.124L118.583 57H123.124L127.665 61.95Z" fill="#8EFCDC"/>
<path d="M136.748 61.95H132.206L127.665 57H132.206L136.748 61.95Z" fill="#8EFCDC"/>
<path d="M145.83 61.95H141.289L136.748 57H141.289L145.83 61.95Z" fill="#8EFCDC"/>
<path d="M154.913 61.95H150.372L145.83 57H150.372L154.913 61.95Z" fill="#8EFCDC"/>
<path d="M64.0872 61.95H60V57.495L64.0872 61.95Z" fill="#8EFCDC"/>
<path d="M154.913 57L159 61.455V57H154.913Z" fill="#8EFCDC"/>
<path d="M73.1697 61.95H68.6284L64.0872 57H68.6284L73.1697 61.95Z" stroke="#8EFCDC" stroke-linejoin="round"/>
<path d="M82.2523 61.95H77.711L73.1697 57H77.711L82.2523 61.95Z" stroke="#8EFCDC" stroke-linejoin="round"/>
<path d="M91.3349 61.95H86.7936L82.2523 57H86.7936L91.3349 61.95Z" stroke="#8EFCDC" stroke-linejoin="round"/>
<path d="M100.417 61.95H95.8761L91.3349 57H95.8761L100.417 61.95Z" stroke="#8EFCDC" stroke-linejoin="round"/>
<path d="M109.5 61.95H104.959L100.417 57H104.959L109.5 61.95Z" stroke="#8EFCDC" stroke-linejoin="round"/>
<path d="M118.583 61.95H114.041L109.5 57H114.041L118.583 61.95Z" stroke="#8EFCDC" stroke-linejoin="round"/>
<path d="M127.665 61.95H123.124L118.583 57H123.124L127.665 61.95Z" stroke="#8EFCDC" stroke-linejoin="round"/>
<path d="M136.748 61.95H132.206L127.665 57H132.206L136.748 61.95Z" stroke="#8EFCDC" stroke-linejoin="round"/>
<path d="M145.83 61.95H141.289L136.748 57H141.289L145.83 61.95Z" stroke="#8EFCDC" stroke-linejoin="round"/>
<path d="M154.913 61.95H150.372L145.83 57H150.372L154.913 61.95Z" stroke="#8EFCDC" stroke-linejoin="round"/>
<path d="M64.0872 61.95H60V57.495L64.0872 61.95Z" stroke="#8EFCDC" stroke-linejoin="round"/>
<path d="M154.913 57L159 61.455V57H154.913Z" stroke="#8EFCDC" stroke-linejoin="round"/>
</g>
<defs>
<filter id="filter0_d_9702_609" x="-0.5" y="0.5" width="376" height="636" filterUnits="userSpaceOnUse" color-interpolation-filters="sRGB">
<feFlood flood-opacity="0" result="BackgroundImageFix"/>
<feColorMatrix in="SourceAlpha" type="matrix" values="0 0 0 0 0 0 0 0 0 0 0 0 0 0 0 0 0 0 127 0" result="hardAlpha"/>
<feOffset/>
<feGaussianBlur stdDeviation="15"/>
<feComposite in2="hardAlpha" operator="out"/>
<feColorMatrix type="matrix" values="0 0 0 0 0.556863 0 0 0 0 0.988235 0 0 0 0 0.862745 0 0 0 0.2 0"/>
<feBlend mode="normal" in2="BackgroundImageFix" result="effect1_dropShadow_9702_609"/>
<feBlend mode="normal" in="SourceGraphic" in2="effect1_dropShadow_9702_609" result="shape"/>
</filter>
<filter id="filter1_d_9702_609" x="-0.499939" y="41.3381" width="66.8404" height="595.162" filterUnits="userSpaceOnUse" color-interpolation-filters="sRGB">
<feFlood flood-opacity="0" result="BackgroundImageFix"/>
<feColorMatrix in="SourceAlpha" type="matrix" values="0 0 0 0 0 0 0 0 0 0 0 0 0 0 0 0 0 0 127 0" result="hardAlpha"/>
<feOffset/>
<feGaussianBlur stdDeviation="15"/>
<feComposite in2="hardAlpha" operator="out"/>
<feColorMatrix type="matrix" values="0 0 0 0 0.556863 0 0 0 0 0.988235 0 0 0 0 0.862745 0 0 0 0.7 0"/>
<feBlend mode="normal" in2="BackgroundImageFix" result="effect1_dropShadow_9702_609"/>
<feBlend mode="normal" in="SourceGraphic" in2="effect1_dropShadow_9702_609" result="shape"/>
</filter>
<filter id="filter2_d_9702_609" x="29.5" y="26.5" width="160" height="65.95" filterUnits="userSpaceOnUse" color-interpolation-filters="sRGB">
<feFlood flood-opacity="0" result="BackgroundImageFix"/>
<feColorMatrix in="SourceAlpha" type="matrix" values="0 0 0 0 0 0 0 0 0 0 0 0 0 0 0 0 0 0 127 0" result="hardAlpha"/>
<feOffset/>
<feGaussianBlur stdDeviation="15"/>
<feComposite in2="hardAlpha" operator="out"/>
<feColorMatrix type="matrix" values="0 0 0 0 0.556863 0 0 0 0 0.988235 0 0 0 0 0.862745 0 0 0 0.7 0"/>
<feBlend mode="normal" in2="BackgroundImageFix" result="effect1_dropShadow_9702_609"/>
<feBlend mode="normal" in="SourceGraphic" in2="effect1_dropShadow_9702_609" result="shape"/>
</filter>
</defs>
</svg>
