<svg width="375" height="697" viewBox="0 0 375 697" fill="none" xmlns="http://www.w3.org/2000/svg">
<g filter="url(#filter0_d_9702_608)">
<path d="M30 92.0163L56.001 61H159.389L185.235 92.0163H271.574H324.322L345 117.863V128.202V300.444V333V570.5V600.073V615.581L324.322 636H194.022H66.3397L30 600.073V579.179V278.444V102.355V92.0163Z" fill="#14916C" fill-opacity="0.65" shape-rendering="crispEdges"/>
<path d="M51.8655 636H30V614.03L51.8655 636Z" fill="#14916C" fill-opacity="0.65" shape-rendering="crispEdges"/>
<path d="M345 570.5V600.073V615.581L324.322 636H194.022M345 570.5H220.418L194.022 597V636M345 570.5V333M194.022 636H66.3397L30 600.073V579.179V278.444M30 278.444V102.355V92.0163L56.001 61H159.389L185.235 92.0163H271.574M30 278.444H76L104.5 248.444H256.925M271.574 92.0163H324.322L345 117.863V128.202V300.444V333M271.574 92.0163V121.5M271.574 141.5V218.5V282L300.018 300.444V333H345M30 636H51.8655L30 614.03V636Z" stroke="#8EFCDC" stroke-width="2" stroke-linejoin="round" shape-rendering="crispEdges"/>
</g>
<g filter="url(#filter1_d_9702_608)">
<path d="M33.5 289.136L30 283.967V315.5L33.5 310.331V289.136Z" fill="#8EFCDC"/>
<path d="M34.2896 107.008L30.1541 101.838V136.99L34.2896 131.821V107.008Z" fill="#8EFCDC"/>
<path d="M30.1541 630.055V636H35.8404L30.1541 630.055Z" fill="#8EFCDC"/>
<path d="M33.5 289.136L30 283.967V315.5L33.5 310.331V289.136Z" stroke="#8EFCDC" stroke-width="2" stroke-linejoin="round"/>
<path d="M34.2896 107.008L30.1541 101.838V136.99L34.2896 131.821V107.008Z" stroke="#8EFCDC" stroke-width="2" stroke-linejoin="round"/>
<path d="M30.1541 630.055V636H35.8404L30.1541 630.055Z" stroke="#8EFCDC" stroke-width="2" stroke-linejoin="round"/>
</g>
<g filter="url(#filter2_d_9702_608)">
<path d="M73.1697 91.95H68.6284L64.0872 87H68.6284L73.1697 91.95Z" fill="#8EFCDC"/>
<path d="M82.2523 91.95H77.711L73.1697 87H77.711L82.2523 91.95Z" fill="#8EFCDC"/>
<path d="M91.3349 91.95H86.7936L82.2523 87H86.7936L91.3349 91.95Z" fill="#8EFCDC"/>
<path d="M100.417 91.95H95.8761L91.3349 87H95.8761L100.417 91.95Z" fill="#8EFCDC"/>
<path d="M109.5 91.95H104.959L100.417 87H104.959L109.5 91.95Z" fill="#8EFCDC"/>
<path d="M118.583 91.95H114.041L109.5 87H114.041L118.583 91.95Z" fill="#8EFCDC"/>
<path d="M127.665 91.95H123.124L118.583 87H123.124L127.665 91.95Z" fill="#8EFCDC"/>
<path d="M136.748 91.95H132.206L127.665 87H132.206L136.748 91.95Z" fill="#8EFCDC"/>
<path d="M145.83 91.95H141.289L136.748 87H141.289L145.83 91.95Z" fill="#8EFCDC"/>
<path d="M154.913 91.95H150.372L145.83 87H150.372L154.913 91.95Z" fill="#8EFCDC"/>
<path d="M64.0872 91.95H60V87.495L64.0872 91.95Z" fill="#8EFCDC"/>
<path d="M154.913 87L159 91.455V87H154.913Z" fill="#8EFCDC"/>
<path d="M73.1697 91.95H68.6284L64.0872 87H68.6284L73.1697 91.95Z" stroke="#8EFCDC" stroke-linejoin="round"/>
<path d="M82.2523 91.95H77.711L73.1697 87H77.711L82.2523 91.95Z" stroke="#8EFCDC" stroke-linejoin="round"/>
<path d="M91.3349 91.95H86.7936L82.2523 87H86.7936L91.3349 91.95Z" stroke="#8EFCDC" stroke-linejoin="round"/>
<path d="M100.417 91.95H95.8761L91.3349 87H95.8761L100.417 91.95Z" stroke="#8EFCDC" stroke-linejoin="round"/>
<path d="M109.5 91.95H104.959L100.417 87H104.959L109.5 91.95Z" stroke="#8EFCDC" stroke-linejoin="round"/>
<path d="M118.583 91.95H114.041L109.5 87H114.041L118.583 91.95Z" stroke="#8EFCDC" stroke-linejoin="round"/>
<path d="M127.665 91.95H123.124L118.583 87H123.124L127.665 91.95Z" stroke="#8EFCDC" stroke-linejoin="round"/>
<path d="M136.748 91.95H132.206L127.665 87H132.206L136.748 91.95Z" stroke="#8EFCDC" stroke-linejoin="round"/>
<path d="M145.83 91.95H141.289L136.748 87H141.289L145.83 91.95Z" stroke="#8EFCDC" stroke-linejoin="round"/>
<path d="M154.913 91.95H150.372L145.83 87H150.372L154.913 91.95Z" stroke="#8EFCDC" stroke-linejoin="round"/>
<path d="M64.0872 91.95H60V87.495L64.0872 91.95Z" stroke="#8EFCDC" stroke-linejoin="round"/>
<path d="M154.913 87L159 91.455V87H154.913Z" stroke="#8EFCDC" stroke-linejoin="round"/>
</g>
<defs>
<filter id="filter0_d_9702_608" x="-31" y="0" width="437" height="697" filterUnits="userSpaceOnUse" color-interpolation-filters="sRGB">
<feFlood flood-opacity="0" result="BackgroundImageFix"/>
<feColorMatrix in="SourceAlpha" type="matrix" values="0 0 0 0 0 0 0 0 0 0 0 0 0 0 0 0 0 0 127 0" result="hardAlpha"/>
<feOffset/>
<feGaussianBlur stdDeviation="30"/>
<feComposite in2="hardAlpha" operator="out"/>
<feColorMatrix type="matrix" values="0 0 0 0 0.556863 0 0 0 0 0.988235 0 0 0 0 0.862745 0 0 0 0.3 0"/>
<feBlend mode="normal" in2="BackgroundImageFix" result="effect1_dropShadow_9702_608"/>
<feBlend mode="normal" in="SourceGraphic" in2="effect1_dropShadow_9702_608" result="shape"/>
</filter>
<filter id="filter1_d_9702_608" x="-1" y="70.8381" width="67.8405" height="596.162" filterUnits="userSpaceOnUse" color-interpolation-filters="sRGB">
<feFlood flood-opacity="0" result="BackgroundImageFix"/>
<feColorMatrix in="SourceAlpha" type="matrix" values="0 0 0 0 0 0 0 0 0 0 0 0 0 0 0 0 0 0 127 0" result="hardAlpha"/>
<feOffset/>
<feGaussianBlur stdDeviation="15"/>
<feComposite in2="hardAlpha" operator="out"/>
<feColorMatrix type="matrix" values="0 0 0 0 0.556863 0 0 0 0 0.988235 0 0 0 0 0.862745 0 0 0 0.7 0"/>
<feBlend mode="normal" in2="BackgroundImageFix" result="effect1_dropShadow_9702_608"/>
<feBlend mode="normal" in="SourceGraphic" in2="effect1_dropShadow_9702_608" result="shape"/>
</filter>
<filter id="filter2_d_9702_608" x="29.5" y="56.5" width="160" height="65.95" filterUnits="userSpaceOnUse" color-interpolation-filters="sRGB">
<feFlood flood-opacity="0" result="BackgroundImageFix"/>
<feColorMatrix in="SourceAlpha" type="matrix" values="0 0 0 0 0 0 0 0 0 0 0 0 0 0 0 0 0 0 127 0" result="hardAlpha"/>
<feOffset/>
<feGaussianBlur stdDeviation="15"/>
<feComposite in2="hardAlpha" operator="out"/>
<feColorMatrix type="matrix" values="0 0 0 0 0.556863 0 0 0 0 0.988235 0 0 0 0 0.862745 0 0 0 0.7 0"/>
<feBlend mode="normal" in2="BackgroundImageFix" result="effect1_dropShadow_9702_608"/>
<feBlend mode="normal" in="SourceGraphic" in2="effect1_dropShadow_9702_608" result="shape"/>
</filter>
</defs>
</svg>
