<svg width="702" height="893" viewBox="0 0 702 893" fill="none" xmlns="http://www.w3.org/2000/svg">
<path d="M61 120.5L111 61L60.7021 159.5L61 120.5Z" fill="url(#paint0_linear_9706_615)" fill-opacity="0.7"/>
<path d="M131 61L61 198.083V276.417L171 61H131Z" fill="url(#paint1_linear_9706_615)" fill-opacity="0.7"/>
<path d="M191 61L61 315.583V393.917L231 61H191Z" fill="url(#paint2_linear_9706_615)" fill-opacity="0.7"/>
<path d="M251 61L61 433.083V511.417L291 61H251Z" fill="url(#paint3_linear_9706_615)" fill-opacity="0.7"/>
<path d="M71 531L311 61L335.936 90.5L111 531H71Z" fill="url(#paint4_linear_9706_615)" fill-opacity="0.7"/>
<path d="M348.277 105.5L131 531H171L380.362 121H361L348.277 105.5Z" fill="url(#paint5_linear_9706_615)" fill-opacity="0.7"/>
<path d="M191 531L400.362 121H440.362L231 531H191Z" fill="url(#paint6_linear_9706_615)" fill-opacity="0.7"/>
<path d="M625 151.083L431 531H471L641.043 198L641 171L625 151.083Z" fill="url(#paint7_linear_9706_615)" fill-opacity="0.7"/>
<path d="M251 531L460.362 121H500.362L291 531H251Z" fill="url(#paint8_linear_9706_615)" fill-opacity="0.7"/>
<path d="M641 237.25L491 531H531L641 315.583V237.25Z" fill="url(#paint9_linear_9706_615)" fill-opacity="0.7"/>
<path d="M311 531L520.362 121H560.362L351 531H311Z" fill="url(#paint10_linear_9706_615)" fill-opacity="0.7"/>
<path d="M641 354.75L551 531H591L641 433.083V354.75Z" fill="url(#paint11_linear_9706_615)" fill-opacity="0.7"/>
<path d="M371 531L580.362 121H601L612.957 135.5L411 531H371Z" fill="url(#paint12_linear_9706_615)" fill-opacity="0.7"/>
<path d="M641 472.25L611 531H641V472.25Z" fill="url(#paint13_linear_9706_615)" fill-opacity="0.7"/>
<g filter="url(#filter0_d_9706_615)">
<path d="M61 121L111 61H311L361 121H601L641 171V191V530V721V762V792L601 831.5H330H131L61 762V721V530V141V121Z" fill="#14916C" fill-opacity="0.05" shape-rendering="crispEdges"/>
<path d="M103 831.5H61V789L103 831.5Z" fill="#14916C" fill-opacity="0.05" shape-rendering="crispEdges"/>
<path d="M641 721V762V792L601 831.5H330M641 721H400L330 792V831.5M641 721V530M330 831.5H131L61 762V721V530M61 530V141V121L111 61H311L361 121H601L641 171V191V530M61 530H548M583 530H641M61 831.5H103L61 789V831.5Z" stroke="#8EFCDC" stroke-width="2" stroke-linejoin="round" shape-rendering="crispEdges"/>
</g>
<g filter="url(#filter1_d_9706_615)">
<path d="M633 550L641 540V601L633 591V550Z" fill="#8EFCDC"/>
<path d="M69 150L61 140V208L69 198V150Z" fill="#8EFCDC"/>
<path d="M61 820V831.5H72L61 820Z" fill="#8EFCDC"/>
<path d="M633 550L641 540V601L633 591V550Z" stroke="#8EFCDC" stroke-width="2" stroke-linejoin="round"/>
<path d="M69 150L61 140V208L69 198V150Z" stroke="#8EFCDC" stroke-width="2" stroke-linejoin="round"/>
<path d="M61 820V831.5H72L61 820Z" stroke="#8EFCDC" stroke-width="2" stroke-linejoin="round"/>
</g>
<defs>
<filter id="filter0_d_9706_615" x="0" y="0" width="702" height="892.5" filterUnits="userSpaceOnUse" color-interpolation-filters="sRGB">
<feFlood flood-opacity="0" result="BackgroundImageFix"/>
<feColorMatrix in="SourceAlpha" type="matrix" values="0 0 0 0 0 0 0 0 0 0 0 0 0 0 0 0 0 0 127 0" result="hardAlpha"/>
<feOffset/>
<feGaussianBlur stdDeviation="30"/>
<feComposite in2="hardAlpha" operator="out"/>
<feColorMatrix type="matrix" values="0 0 0 0 0.556863 0 0 0 0 0.988235 0 0 0 0 0.862745 0 0 0 0.3 0"/>
<feBlend mode="normal" in2="BackgroundImageFix" result="effect1_dropShadow_9706_615"/>
<feBlend mode="normal" in="SourceGraphic" in2="effect1_dropShadow_9706_615" result="shape"/>
</filter>
<filter id="filter1_d_9706_615" x="30" y="109" width="642" height="753.5" filterUnits="userSpaceOnUse" color-interpolation-filters="sRGB">
<feFlood flood-opacity="0" result="BackgroundImageFix"/>
<feColorMatrix in="SourceAlpha" type="matrix" values="0 0 0 0 0 0 0 0 0 0 0 0 0 0 0 0 0 0 127 0" result="hardAlpha"/>
<feOffset/>
<feGaussianBlur stdDeviation="15"/>
<feComposite in2="hardAlpha" operator="out"/>
<feColorMatrix type="matrix" values="0 0 0 0 0.556863 0 0 0 0 0.988235 0 0 0 0 0.862745 0 0 0 0.7 0"/>
<feBlend mode="normal" in2="BackgroundImageFix" result="effect1_dropShadow_9706_615"/>
<feBlend mode="normal" in="SourceGraphic" in2="effect1_dropShadow_9706_615" result="shape"/>
</filter>
<linearGradient id="paint0_linear_9706_615" x1="350.872" y1="61" x2="350.872" y2="531" gradientUnits="userSpaceOnUse">
<stop stop-color="#8EFCDC"/>
<stop offset="1" stop-color="#102532"/>
</linearGradient>
<linearGradient id="paint1_linear_9706_615" x1="350.872" y1="61" x2="350.872" y2="531" gradientUnits="userSpaceOnUse">
<stop stop-color="#8EFCDC"/>
<stop offset="1" stop-color="#102532"/>
</linearGradient>
<linearGradient id="paint2_linear_9706_615" x1="350.872" y1="61" x2="350.872" y2="531" gradientUnits="userSpaceOnUse">
<stop stop-color="#8EFCDC"/>
<stop offset="1" stop-color="#102532"/>
</linearGradient>
<linearGradient id="paint3_linear_9706_615" x1="350.872" y1="61" x2="350.872" y2="531" gradientUnits="userSpaceOnUse">
<stop stop-color="#8EFCDC"/>
<stop offset="1" stop-color="#102532"/>
</linearGradient>
<linearGradient id="paint4_linear_9706_615" x1="350.872" y1="61" x2="350.872" y2="531" gradientUnits="userSpaceOnUse">
<stop stop-color="#8EFCDC"/>
<stop offset="1" stop-color="#102532"/>
</linearGradient>
<linearGradient id="paint5_linear_9706_615" x1="350.872" y1="61" x2="350.872" y2="531" gradientUnits="userSpaceOnUse">
<stop stop-color="#8EFCDC"/>
<stop offset="1" stop-color="#102532"/>
</linearGradient>
<linearGradient id="paint6_linear_9706_615" x1="350.872" y1="61" x2="350.872" y2="531" gradientUnits="userSpaceOnUse">
<stop stop-color="#8EFCDC"/>
<stop offset="1" stop-color="#102532"/>
</linearGradient>
<linearGradient id="paint7_linear_9706_615" x1="350.872" y1="61" x2="350.872" y2="531" gradientUnits="userSpaceOnUse">
<stop stop-color="#8EFCDC"/>
<stop offset="1" stop-color="#102532"/>
</linearGradient>
<linearGradient id="paint8_linear_9706_615" x1="350.872" y1="61" x2="350.872" y2="531" gradientUnits="userSpaceOnUse">
<stop stop-color="#8EFCDC"/>
<stop offset="1" stop-color="#102532"/>
</linearGradient>
<linearGradient id="paint9_linear_9706_615" x1="350.872" y1="61" x2="350.872" y2="531" gradientUnits="userSpaceOnUse">
<stop stop-color="#8EFCDC"/>
<stop offset="1" stop-color="#102532"/>
</linearGradient>
<linearGradient id="paint10_linear_9706_615" x1="350.872" y1="61" x2="350.872" y2="531" gradientUnits="userSpaceOnUse">
<stop stop-color="#8EFCDC"/>
<stop offset="1" stop-color="#102532"/>
</linearGradient>
<linearGradient id="paint11_linear_9706_615" x1="350.872" y1="61" x2="350.872" y2="531" gradientUnits="userSpaceOnUse">
<stop stop-color="#8EFCDC"/>
<stop offset="1" stop-color="#102532"/>
</linearGradient>
<linearGradient id="paint12_linear_9706_615" x1="350.872" y1="61" x2="350.872" y2="531" gradientUnits="userSpaceOnUse">
<stop stop-color="#8EFCDC"/>
<stop offset="1" stop-color="#102532"/>
</linearGradient>
<linearGradient id="paint13_linear_9706_615" x1="350.872" y1="61" x2="350.872" y2="531" gradientUnits="userSpaceOnUse">
<stop stop-color="#8EFCDC"/>
<stop offset="1" stop-color="#102532"/>
</linearGradient>
</defs>
</svg>
