<svg width="375" height="437" viewBox="0 0 375 437" fill="none" xmlns="http://www.w3.org/2000/svg">
<path fill-rule="evenodd" clip-rule="evenodd" d="M56 31L30 62V81.8857L56 31ZM30 142.557V101.457L66 31H87L30 142.557ZM30 203.229V162.129L97 31H118L30 203.229ZM30 236.5H44L149 31H128L30 222.8V236.5ZM159 31L54 236.5H75L172.198 46.2696L159.5 31H159ZM178.392 53.7181L85 236.5H106L195.161 62H185.279L178.392 53.7181ZM205.161 62L116 236.5H137L226.161 62H205.161ZM236.161 62L147 236.5H168L257.161 62H236.161ZM267.161 62L178 236.5H199L288.161 62H267.161ZM298.161 62L209 236.5H230L319.161 62H298.161ZM327.161 65.9135L240 236.5H261L340.024 81.839L327.161 65.9135ZM345 91.6712L271 236.5H292L345 132.771V91.6712ZM345 154.3L303 236.5H324L345 195.4V154.3ZM345 214.971L334 236.5H345V214.971Z" fill="url(#paint0_linear_9706_611)" fill-opacity="0.05"/>
<g filter="url(#filter0_d_9706_611)">
<path d="M30 62.0138L56.001 30.9976H159.389L185.235 62.0138H271.574H324.322L345 87.8607V98.1995V236.5V270.441V302.998V340.498V370.07V385.578L324.322 405.998H194.022H66.3397L30 370.07V349.177V248.441V236.5V72.3526V62.0138Z" fill="#14916C" fill-opacity="0.1" shape-rendering="crispEdges"/>
<path d="M51.8655 405.998H30V384.028L51.8655 405.998Z" fill="#14916C" fill-opacity="0.1" shape-rendering="crispEdges"/>
<path d="M345 340.498V370.07V385.578L324.322 405.998H194.022M345 340.498H220.418L194.022 366.998V405.998M345 340.498V302.998V270.441V236.5M194.022 405.998H66.3397L30 370.07V349.177V248.441V236.5M30 236.5V72.3526V62.0138L56.001 30.9976H159.389L185.235 62.0138H271.574H324.322L345 87.8607V98.1995V236.5M30 236.5H345M30 405.998H51.8655L30 384.028V405.998Z" stroke="#8EFCDC" stroke-linejoin="round" shape-rendering="crispEdges"/>
</g>
<g filter="url(#filter1_d_9706_611)">
<path d="M33.5001 259.134L30.0001 253.965V285.498L33.5001 280.328V259.134Z" fill="#8EFCDC"/>
<path d="M34.2896 77.0051L30.1541 71.8357V106.987L34.2896 101.818V77.0051Z" fill="#8EFCDC"/>
<path d="M30.1541 400.053V405.998H35.8404L30.1541 400.053Z" fill="#8EFCDC"/>
<path d="M33.5001 259.134L30.0001 253.965V285.498L33.5001 280.328V259.134Z" stroke="#8EFCDC" stroke-linejoin="round"/>
<path d="M34.2896 77.0051L30.1541 71.8357V106.987L34.2896 101.818V77.0051Z" stroke="#8EFCDC" stroke-linejoin="round"/>
<path d="M30.1541 400.053V405.998H35.8404L30.1541 400.053Z" stroke="#8EFCDC" stroke-linejoin="round"/>
</g>
<defs>
<filter id="filter0_d_9706_611" x="-0.5" y="0.497559" width="376" height="436" filterUnits="userSpaceOnUse" color-interpolation-filters="sRGB">
<feFlood flood-opacity="0" result="BackgroundImageFix"/>
<feColorMatrix in="SourceAlpha" type="matrix" values="0 0 0 0 0 0 0 0 0 0 0 0 0 0 0 0 0 0 127 0" result="hardAlpha"/>
<feOffset/>
<feGaussianBlur stdDeviation="15"/>
<feComposite in2="hardAlpha" operator="out"/>
<feColorMatrix type="matrix" values="0 0 0 0 0.556863 0 0 0 0 0.988235 0 0 0 0 0.862745 0 0 0 0.2 0"/>
<feBlend mode="normal" in2="BackgroundImageFix" result="effect1_dropShadow_9706_611"/>
<feBlend mode="normal" in="SourceGraphic" in2="effect1_dropShadow_9706_611" result="shape"/>
</filter>
<filter id="filter1_d_9706_611" x="-0.499939" y="41.3357" width="66.8404" height="395.162" filterUnits="userSpaceOnUse" color-interpolation-filters="sRGB">
<feFlood flood-opacity="0" result="BackgroundImageFix"/>
<feColorMatrix in="SourceAlpha" type="matrix" values="0 0 0 0 0 0 0 0 0 0 0 0 0 0 0 0 0 0 127 0" result="hardAlpha"/>
<feOffset/>
<feGaussianBlur stdDeviation="15"/>
<feComposite in2="hardAlpha" operator="out"/>
<feColorMatrix type="matrix" values="0 0 0 0 0.556863 0 0 0 0 0.988235 0 0 0 0 0.862745 0 0 0 0.7 0"/>
<feBlend mode="normal" in2="BackgroundImageFix" result="effect1_dropShadow_9706_611"/>
<feBlend mode="normal" in="SourceGraphic" in2="effect1_dropShadow_9706_611" result="shape"/>
</filter>
<linearGradient id="paint0_linear_9706_611" x1="128.413" y1="31" x2="128.413" y2="236.5" gradientUnits="userSpaceOnUse">
<stop stop-color="#8EFCDC"/>
<stop offset="1" stop-color="#102532"/>
</linearGradient>
</defs>
</svg>
