<svg width="375" height="2958" viewBox="0 0 375 2958" fill="none" xmlns="http://www.w3.org/2000/svg">
<path d="M93.3593 1213H-0.000120997" stroke="url(#paint0_linear_7993_7146)"/>
<path d="M248.242 1170L375 1170" stroke="url(#paint1_linear_7993_7146)"/>
<g opacity="0.1">
<mask id="mask0_7993_7146" style="mask-type:alpha" maskUnits="userSpaceOnUse" x="-153" y="2810" width="339" height="339">
<circle cx="16.6461" cy="2979.73" r="168.903" transform="rotate(30 16.6461 2979.73)" fill="#C4C4C4"/>
</mask>
<g mask="url(#mask0_7993_7146)">
<rect x="7.14197" y="2590.33" width="12.2988" height="664.543" transform="rotate(30 7.14197 2590.33)" fill="url(#paint2_linear_7993_7146)"/>
<rect x="28.4442" y="2602.63" width="12.2988" height="664.543" transform="rotate(30 28.4442 2602.63)" fill="url(#paint3_linear_7993_7146)"/>
<rect x="49.7463" y="2614.93" width="12.2988" height="664.543" transform="rotate(30 49.7463 2614.93)" fill="url(#paint4_linear_7993_7146)"/>
<rect x="71.0483" y="2627.22" width="12.2988" height="664.543" transform="rotate(30 71.0483 2627.22)" fill="url(#paint5_linear_7993_7146)"/>
<rect x="92.3505" y="2639.52" width="12.2988" height="664.543" transform="rotate(30 92.3505 2639.52)" fill="url(#paint6_linear_7993_7146)"/>
<rect x="113.652" y="2651.82" width="12.2988" height="664.543" transform="rotate(30 113.652 2651.82)" fill="url(#paint7_linear_7993_7146)"/>
<rect x="134.955" y="2664.12" width="12.2988" height="664.543" transform="rotate(30 134.955 2664.12)" fill="url(#paint8_linear_7993_7146)"/>
<rect x="156.257" y="2676.42" width="12.2988" height="664.543" transform="rotate(30 156.257 2676.42)" fill="url(#paint9_linear_7993_7146)"/>
<rect x="177.559" y="2688.72" width="12.2988" height="664.543" transform="rotate(30 177.559 2688.72)" fill="url(#paint10_linear_7993_7146)"/>
<rect x="198.861" y="2701.02" width="12.2988" height="664.543" transform="rotate(30 198.861 2701.02)" fill="url(#paint11_linear_7993_7146)"/>
<rect x="220.163" y="2713.32" width="12.2988" height="664.543" transform="rotate(30 220.163 2713.32)" fill="url(#paint12_linear_7993_7146)"/>
<rect x="241.465" y="2725.61" width="12.2988" height="664.543" transform="rotate(30 241.465 2725.61)" fill="url(#paint13_linear_7993_7146)"/>
<rect x="262.767" y="2737.91" width="12.2988" height="664.543" transform="rotate(30 262.767 2737.91)" fill="url(#paint14_linear_7993_7146)"/>
<rect x="284.069" y="2750.21" width="12.2988" height="664.543" transform="rotate(30 284.069 2750.21)" fill="url(#paint15_linear_7993_7146)"/>
<rect x="305.371" y="2762.51" width="12.2988" height="664.543" transform="rotate(30 305.371 2762.51)" fill="url(#paint16_linear_7993_7146)"/>
<rect x="326.673" y="2774.81" width="12.2988" height="664.543" transform="rotate(30 326.673 2774.81)" fill="url(#paint17_linear_7993_7146)"/>
<rect x="347.975" y="2787.11" width="12.2988" height="664.543" transform="rotate(30 347.975 2787.11)" fill="url(#paint18_linear_7993_7146)"/>
<rect x="369.277" y="2799.41" width="12.2988" height="664.543" transform="rotate(30 369.277 2799.41)" fill="url(#paint19_linear_7993_7146)"/>
<rect x="390.579" y="2811.71" width="12.2988" height="664.543" transform="rotate(30 390.579 2811.71)" fill="url(#paint20_linear_7993_7146)"/>
<rect x="411.881" y="2824" width="12.2988" height="664.543" transform="rotate(30 411.881 2824)" fill="url(#paint21_linear_7993_7146)"/>
</g>
</g>
<g opacity="0.1">
<mask id="mask1_7993_7146" style="mask-type:alpha" maskUnits="userSpaceOnUse" x="-153" y="1097" width="339" height="339">
<circle cx="16.6462" cy="1266.51" r="168.903" transform="rotate(30 16.6462 1266.51)" fill="#C4C4C4"/>
</mask>
<g mask="url(#mask1_7993_7146)">
<rect x="7.14209" y="877.116" width="12.2988" height="664.543" transform="rotate(30 7.14209 877.116)" fill="url(#paint22_linear_7993_7146)"/>
<rect x="28.4443" y="889.415" width="12.2988" height="664.543" transform="rotate(30 28.4443 889.415)" fill="url(#paint23_linear_7993_7146)"/>
<rect x="49.7465" y="901.714" width="12.2988" height="664.543" transform="rotate(30 49.7465 901.714)" fill="url(#paint24_linear_7993_7146)"/>
<rect x="71.0484" y="914.013" width="12.2988" height="664.543" transform="rotate(30 71.0484 914.013)" fill="url(#paint25_linear_7993_7146)"/>
<rect x="92.3506" y="926.311" width="12.2988" height="664.543" transform="rotate(30 92.3506 926.311)" fill="url(#paint26_linear_7993_7146)"/>
<rect x="113.653" y="938.61" width="12.2988" height="664.543" transform="rotate(30 113.653 938.61)" fill="url(#paint27_linear_7993_7146)"/>
<rect x="134.955" y="950.909" width="12.2988" height="664.543" transform="rotate(30 134.955 950.909)" fill="url(#paint28_linear_7993_7146)"/>
<rect x="156.257" y="963.208" width="12.2988" height="664.543" transform="rotate(30 156.257 963.208)" fill="url(#paint29_linear_7993_7146)"/>
<rect x="177.559" y="975.506" width="12.2988" height="664.543" transform="rotate(30 177.559 975.506)" fill="url(#paint30_linear_7993_7146)"/>
<rect x="198.861" y="987.805" width="12.2988" height="664.543" transform="rotate(30 198.861 987.805)" fill="url(#paint31_linear_7993_7146)"/>
<rect x="220.163" y="1000.1" width="12.2988" height="664.543" transform="rotate(30 220.163 1000.1)" fill="url(#paint32_linear_7993_7146)"/>
<rect x="241.465" y="1012.4" width="12.2988" height="664.543" transform="rotate(30 241.465 1012.4)" fill="url(#paint33_linear_7993_7146)"/>
<rect x="262.767" y="1024.7" width="12.2988" height="664.543" transform="rotate(30 262.767 1024.7)" fill="url(#paint34_linear_7993_7146)"/>
<rect x="284.069" y="1037" width="12.2988" height="664.543" transform="rotate(30 284.069 1037)" fill="url(#paint35_linear_7993_7146)"/>
<rect x="305.371" y="1049.3" width="12.2988" height="664.543" transform="rotate(30 305.371 1049.3)" fill="url(#paint36_linear_7993_7146)"/>
<rect x="326.673" y="1061.6" width="12.2988" height="664.543" transform="rotate(30 326.673 1061.6)" fill="url(#paint37_linear_7993_7146)"/>
<rect x="347.975" y="1073.9" width="12.2988" height="664.543" transform="rotate(30 347.975 1073.9)" fill="url(#paint38_linear_7993_7146)"/>
<rect x="369.277" y="1086.2" width="12.2988" height="664.543" transform="rotate(30 369.277 1086.2)" fill="url(#paint39_linear_7993_7146)"/>
<rect x="390.58" y="1098.49" width="12.2988" height="664.543" transform="rotate(30 390.58 1098.49)" fill="url(#paint40_linear_7993_7146)"/>
<rect x="411.882" y="1110.79" width="12.2988" height="664.543" transform="rotate(30 411.882 1110.79)" fill="url(#paint41_linear_7993_7146)"/>
</g>
</g>
<g opacity="0.1">
<mask id="mask2_7993_7146" style="mask-type:alpha" maskUnits="userSpaceOnUse" x="-153" y="44" width="339" height="339">
<circle cx="16.6462" cy="213.726" r="168.903" transform="rotate(30 16.6462 213.726)" fill="#C4C4C4"/>
</mask>
<g mask="url(#mask2_7993_7146)">
<rect x="7.14209" y="-175.672" width="12.2988" height="664.543" transform="rotate(30 7.14209 -175.672)" fill="url(#paint42_linear_7993_7146)"/>
<rect x="28.4443" y="-163.373" width="12.2988" height="664.543" transform="rotate(30 28.4443 -163.373)" fill="url(#paint43_linear_7993_7146)"/>
<rect x="49.7465" y="-151.074" width="12.2988" height="664.543" transform="rotate(30 49.7465 -151.074)" fill="url(#paint44_linear_7993_7146)"/>
<rect x="71.0484" y="-138.775" width="12.2988" height="664.543" transform="rotate(30 71.0484 -138.775)" fill="url(#paint45_linear_7993_7146)"/>
<rect x="92.3506" y="-126.477" width="12.2988" height="664.543" transform="rotate(30 92.3506 -126.477)" fill="url(#paint46_linear_7993_7146)"/>
<rect x="113.653" y="-114.178" width="12.2988" height="664.543" transform="rotate(30 113.653 -114.178)" fill="url(#paint47_linear_7993_7146)"/>
<rect x="134.955" y="-101.879" width="12.2988" height="664.543" transform="rotate(30 134.955 -101.879)" fill="url(#paint48_linear_7993_7146)"/>
<rect x="156.257" y="-89.5803" width="12.2988" height="664.543" transform="rotate(30 156.257 -89.5803)" fill="url(#paint49_linear_7993_7146)"/>
<rect x="177.559" y="-77.2815" width="12.2988" height="664.543" transform="rotate(30 177.559 -77.2815)" fill="url(#paint50_linear_7993_7146)"/>
<rect x="198.861" y="-64.9832" width="12.2988" height="664.543" transform="rotate(30 198.861 -64.9832)" fill="url(#paint51_linear_7993_7146)"/>
<rect x="220.163" y="-52.6843" width="12.2988" height="664.543" transform="rotate(30 220.163 -52.6843)" fill="url(#paint52_linear_7993_7146)"/>
<rect x="241.465" y="-40.3853" width="12.2988" height="664.543" transform="rotate(30 241.465 -40.3853)" fill="url(#paint53_linear_7993_7146)"/>
<rect x="262.767" y="-28.0864" width="12.2988" height="664.543" transform="rotate(30 262.767 -28.0864)" fill="url(#paint54_linear_7993_7146)"/>
<rect x="284.069" y="-15.7876" width="12.2988" height="664.543" transform="rotate(30 284.069 -15.7876)" fill="url(#paint55_linear_7993_7146)"/>
<rect x="305.371" y="-3.48926" width="12.2988" height="664.543" transform="rotate(30 305.371 -3.48926)" fill="url(#paint56_linear_7993_7146)"/>
<rect x="326.673" y="8.80957" width="12.2988" height="664.543" transform="rotate(30 326.673 8.80957)" fill="url(#paint57_linear_7993_7146)"/>
<rect x="347.975" y="21.1082" width="12.2988" height="664.543" transform="rotate(30 347.975 21.1082)" fill="url(#paint58_linear_7993_7146)"/>
<rect x="369.277" y="33.4075" width="12.2988" height="664.543" transform="rotate(30 369.277 33.4075)" fill="url(#paint59_linear_7993_7146)"/>
<rect x="390.58" y="45.7063" width="12.2988" height="664.543" transform="rotate(30 390.58 45.7063)" fill="url(#paint60_linear_7993_7146)"/>
<rect x="411.882" y="58.0046" width="12.2988" height="664.543" transform="rotate(30 411.882 58.0046)" fill="url(#paint61_linear_7993_7146)"/>
</g>
</g>
<g opacity="0.1">
<mask id="mask3_7993_7146" style="mask-type:alpha" maskUnits="userSpaceOnUse" x="192" y="3185" width="339" height="339">
<circle cx="361.725" cy="3354.73" r="168.903" transform="rotate(30 361.725 3354.73)" fill="#C4C4C4"/>
</mask>
<g mask="url(#mask3_7993_7146)">
</g>
</g>
<g opacity="0.1">
<mask id="mask4_7993_7146" style="mask-type:alpha" maskUnits="userSpaceOnUse" x="192" y="1939" width="339" height="339">
<circle cx="361.725" cy="2108.73" r="168.903" transform="rotate(30 361.725 2108.73)" fill="#C4C4C4"/>
</mask>
<g mask="url(#mask4_7993_7146)">
<rect x="288.315" y="1682.43" width="12.2988" height="664.543" transform="rotate(30 288.315 1682.43)" fill="url(#paint62_linear_7993_7146)"/>
<rect x="309.617" y="1694.73" width="12.2988" height="664.543" transform="rotate(30 309.617 1694.73)" fill="url(#paint63_linear_7993_7146)"/>
<rect x="330.919" y="1707.03" width="12.2988" height="664.543" transform="rotate(30 330.919 1707.03)" fill="url(#paint64_linear_7993_7146)"/>
<rect x="352.221" y="1719.33" width="12.2988" height="664.543" transform="rotate(30 352.221 1719.33)" fill="url(#paint65_linear_7993_7146)"/>
<rect x="373.523" y="1731.63" width="12.2988" height="664.543" transform="rotate(30 373.523 1731.63)" fill="url(#paint66_linear_7993_7146)"/>
<rect x="394.825" y="1743.93" width="12.2988" height="664.543" transform="rotate(30 394.825 1743.93)" fill="url(#paint67_linear_7993_7146)"/>
<rect x="416.127" y="1756.22" width="12.2988" height="664.543" transform="rotate(30 416.127 1756.22)" fill="url(#paint68_linear_7993_7146)"/>
<rect x="437.43" y="1768.52" width="12.2988" height="664.543" transform="rotate(30 437.43 1768.52)" fill="url(#paint69_linear_7993_7146)"/>
<rect x="458.732" y="1780.82" width="12.2988" height="664.543" transform="rotate(30 458.732 1780.82)" fill="url(#paint70_linear_7993_7146)"/>
<rect x="480.034" y="1793.12" width="12.2988" height="664.543" transform="rotate(30 480.034 1793.12)" fill="url(#paint71_linear_7993_7146)"/>
<rect x="501.336" y="1805.42" width="12.2988" height="664.543" transform="rotate(30 501.336 1805.42)" fill="url(#paint72_linear_7993_7146)"/>
<rect x="522.638" y="1817.72" width="12.2988" height="664.543" transform="rotate(30 522.638 1817.72)" fill="url(#paint73_linear_7993_7146)"/>
<rect x="543.94" y="1830.02" width="12.2988" height="664.543" transform="rotate(30 543.94 1830.02)" fill="url(#paint74_linear_7993_7146)"/>
<rect x="565.242" y="1842.32" width="12.2988" height="664.543" transform="rotate(30 565.242 1842.32)" fill="url(#paint75_linear_7993_7146)"/>
<rect x="586.544" y="1854.61" width="12.2988" height="664.543" transform="rotate(30 586.544 1854.61)" fill="url(#paint76_linear_7993_7146)"/>
<rect x="607.846" y="1866.91" width="12.2988" height="664.543" transform="rotate(30 607.846 1866.91)" fill="url(#paint77_linear_7993_7146)"/>
<rect x="629.148" y="1879.21" width="12.2988" height="664.543" transform="rotate(30 629.148 1879.21)" fill="url(#paint78_linear_7993_7146)"/>
<rect x="650.45" y="1891.51" width="12.2988" height="664.543" transform="rotate(30 650.45 1891.51)" fill="url(#paint79_linear_7993_7146)"/>
<rect x="671.752" y="1903.81" width="12.2988" height="664.543" transform="rotate(30 671.752 1903.81)" fill="url(#paint80_linear_7993_7146)"/>
<rect x="693.054" y="1916.11" width="12.2988" height="664.543" transform="rotate(30 693.054 1916.11)" fill="url(#paint81_linear_7993_7146)"/>
</g>
</g>
<g opacity="0.6">
<g filter="url(#filter0_f_7993_7146)">
<ellipse cx="222.195" cy="1138.26" rx="47.064" ry="358.576" transform="rotate(45 222.195 1138.26)" fill="#8A93AD" fill-opacity="0.7"/>
</g>
<g filter="url(#filter1_f_7993_7146)">
<ellipse cx="49.8311" cy="3105.17" rx="47.064" ry="358.576" transform="rotate(45 49.8311 3105.17)" fill="#8A93AD"/>
</g>
<g filter="url(#filter2_f_7993_7146)">
<ellipse cx="222.195" cy="1286.18" rx="47.064" ry="358.576" transform="rotate(45 222.195 1286.18)" fill="#CED7F3" fill-opacity="0.26"/>
</g>
<g filter="url(#filter3_f_7993_7146)">
<ellipse cx="178.768" cy="777" rx="20.1811" ry="153.758" transform="rotate(45 178.768 777)" fill="#4C5A79"/>
</g>
<g filter="url(#filter4_f_7993_7146)">
<ellipse cx="124.981" cy="1852.14" rx="20.1811" ry="153.758" transform="rotate(45 124.981 1852.14)" fill="#4C5A79" fill-opacity="0.65"/>
</g>
<g filter="url(#filter5_f_7993_7146)">
<ellipse cx="222.195" cy="286.831" rx="47.064" ry="358.576" transform="rotate(45 222.195 286.831)" fill="#323D53"/>
</g>
<g filter="url(#filter6_f_7993_7146)">
<ellipse cx="283.513" cy="563.103" rx="47.064" ry="358.576" transform="rotate(45 283.513 563.103)" fill="#8A93AD"/>
</g>
<g filter="url(#filter7_f_7993_7146)">
<ellipse cx="-12.9287" cy="1606.46" rx="47.064" ry="358.576" transform="rotate(45 -12.9287 1606.46)" fill="#CED7F3" fill-opacity="0.5"/>
</g>
<g filter="url(#filter8_f_7993_7146)">
<ellipse cx="99.5361" cy="2926.08" rx="47.064" ry="358.576" transform="rotate(45 99.5361 2926.08)" fill="#8A93AD"/>
</g>
<g filter="url(#filter9_f_7993_7146)">
<ellipse cx="-113.169" cy="540.487" rx="47.064" ry="358.576" transform="rotate(45 -113.169 540.487)" fill="#446A7B"/>
</g>
<g filter="url(#filter10_f_7993_7146)">
<ellipse cx="16.9608" cy="1096.03" rx="47.064" ry="194.256" transform="rotate(45 16.9608 1096.03)" fill="#CED7F3" fill-opacity="0.53"/>
</g>
<g filter="url(#filter11_f_7993_7146)">
<ellipse cx="433.262" cy="501.369" rx="20.1811" ry="153.758" transform="rotate(45 433.262 501.369)" fill="#0D192D"/>
</g>
<g filter="url(#filter12_f_7993_7146)">
<ellipse cx="-141.315" cy="662.702" rx="20.1811" ry="153.758" transform="rotate(45 -141.315 662.702)" fill="#4C5A79"/>
</g>
<g filter="url(#filter13_f_7993_7146)">
<ellipse cx="-141.315" cy="1514.13" rx="20.1811" ry="153.758" transform="rotate(45 -141.315 1514.13)" fill="#4C5A79" fill-opacity="0.62"/>
</g>
<g filter="url(#filter14_f_7993_7146)">
<ellipse cx="34.7163" cy="2233.54" rx="20.1811" ry="153.758" transform="rotate(45 34.7163 2233.54)" fill="#8A93AD" fill-opacity="0.65"/>
</g>
<g filter="url(#filter15_f_7993_7146)">
<ellipse cx="-97.3074" cy="2908.94" rx="20.1811" ry="153.758" transform="rotate(45 -97.3074 2908.94)" fill="#8A93AD" fill-opacity="0.65"/>
</g>
<g filter="url(#filter16_f_7993_7146)">
<ellipse cx="463.793" cy="2536.7" rx="20.1811" ry="153.758" transform="rotate(45 463.793 2536.7)" fill="#8A93AD" fill-opacity="0.65"/>
</g>
<g filter="url(#filter17_f_7993_7146)">
<ellipse cx="-86.1689" cy="2051.42" rx="47.064" ry="358.576" transform="rotate(45 -86.1689 2051.42)" fill="#4C5A79"/>
</g>
<g filter="url(#filter18_f_7993_7146)">
<ellipse cx="331.906" cy="434.746" rx="47.064" ry="358.576" transform="rotate(45 331.906 434.746)" fill="#8A93AD"/>
</g>
<g filter="url(#filter19_f_7993_7146)">
<ellipse cx="186.831" cy="1127.04" rx="26.0678" ry="198.609" transform="rotate(45 186.831 1127.04)" fill="#4C5A79" fill-opacity="0.42"/>
</g>
</g>
<defs>
<filter id="filter0_f_7993_7146" x="-633.56" y="282.506" width="1711.51" height="1711.51" filterUnits="userSpaceOnUse" color-interpolation-filters="sRGB">
<feFlood flood-opacity="0" result="BackgroundImageFix"/>
<feBlend mode="normal" in="SourceGraphic" in2="BackgroundImageFix" result="shape"/>
<feGaussianBlur stdDeviation="300" result="effect1_foregroundBlur_7993_7146"/>
</filter>
<filter id="filter1_f_7993_7146" x="-805.924" y="2249.41" width="1711.51" height="1711.51" filterUnits="userSpaceOnUse" color-interpolation-filters="sRGB">
<feFlood flood-opacity="0" result="BackgroundImageFix"/>
<feBlend mode="normal" in="SourceGraphic" in2="BackgroundImageFix" result="shape"/>
<feGaussianBlur stdDeviation="300" result="effect1_foregroundBlur_7993_7146"/>
</filter>
<filter id="filter2_f_7993_7146" x="-633.56" y="430.421" width="1711.51" height="1711.51" filterUnits="userSpaceOnUse" color-interpolation-filters="sRGB">
<feFlood flood-opacity="0" result="BackgroundImageFix"/>
<feBlend mode="normal" in="SourceGraphic" in2="BackgroundImageFix" result="shape"/>
<feGaussianBlur stdDeviation="300" result="effect1_foregroundBlur_7993_7146"/>
</filter>
<filter id="filter3_f_7993_7146" x="-130.9" y="467.331" width="619.337" height="619.337" filterUnits="userSpaceOnUse" color-interpolation-filters="sRGB">
<feFlood flood-opacity="0" result="BackgroundImageFix"/>
<feBlend mode="normal" in="SourceGraphic" in2="BackgroundImageFix" result="shape"/>
<feGaussianBlur stdDeviation="100" result="effect1_foregroundBlur_7993_7146"/>
</filter>
<filter id="filter4_f_7993_7146" x="-184.688" y="1542.47" width="619.337" height="619.337" filterUnits="userSpaceOnUse" color-interpolation-filters="sRGB">
<feFlood flood-opacity="0" result="BackgroundImageFix"/>
<feBlend mode="normal" in="SourceGraphic" in2="BackgroundImageFix" result="shape"/>
<feGaussianBlur stdDeviation="100" result="effect1_foregroundBlur_7993_7146"/>
</filter>
<filter id="filter5_f_7993_7146" x="-633.56" y="-568.924" width="1711.51" height="1711.51" filterUnits="userSpaceOnUse" color-interpolation-filters="sRGB">
<feFlood flood-opacity="0" result="BackgroundImageFix"/>
<feBlend mode="normal" in="SourceGraphic" in2="BackgroundImageFix" result="shape"/>
<feGaussianBlur stdDeviation="300" result="effect1_foregroundBlur_7993_7146"/>
</filter>
<filter id="filter6_f_7993_7146" x="-572.242" y="-292.652" width="1711.51" height="1711.51" filterUnits="userSpaceOnUse" color-interpolation-filters="sRGB">
<feFlood flood-opacity="0" result="BackgroundImageFix"/>
<feBlend mode="normal" in="SourceGraphic" in2="BackgroundImageFix" result="shape"/>
<feGaussianBlur stdDeviation="300" result="effect1_foregroundBlur_7993_7146"/>
</filter>
<filter id="filter7_f_7993_7146" x="-868.684" y="750.701" width="1711.51" height="1711.51" filterUnits="userSpaceOnUse" color-interpolation-filters="sRGB">
<feFlood flood-opacity="0" result="BackgroundImageFix"/>
<feBlend mode="normal" in="SourceGraphic" in2="BackgroundImageFix" result="shape"/>
<feGaussianBlur stdDeviation="300" result="effect1_foregroundBlur_7993_7146"/>
</filter>
<filter id="filter8_f_7993_7146" x="-756.219" y="2070.33" width="1711.51" height="1711.51" filterUnits="userSpaceOnUse" color-interpolation-filters="sRGB">
<feFlood flood-opacity="0" result="BackgroundImageFix"/>
<feBlend mode="normal" in="SourceGraphic" in2="BackgroundImageFix" result="shape"/>
<feGaussianBlur stdDeviation="300" result="effect1_foregroundBlur_7993_7146"/>
</filter>
<filter id="filter9_f_7993_7146" x="-968.924" y="-315.268" width="1711.51" height="1711.51" filterUnits="userSpaceOnUse" color-interpolation-filters="sRGB">
<feFlood flood-opacity="0" result="BackgroundImageFix"/>
<feBlend mode="normal" in="SourceGraphic" in2="BackgroundImageFix" result="shape"/>
<feGaussianBlur stdDeviation="300" result="effect1_foregroundBlur_7993_7146"/>
</filter>
<filter id="filter10_f_7993_7146" x="-724.405" y="354.661" width="1482.73" height="1482.73" filterUnits="userSpaceOnUse" color-interpolation-filters="sRGB">
<feFlood flood-opacity="0" result="BackgroundImageFix"/>
<feBlend mode="normal" in="SourceGraphic" in2="BackgroundImageFix" result="shape"/>
<feGaussianBlur stdDeviation="300" result="effect1_foregroundBlur_7993_7146"/>
</filter>
<filter id="filter11_f_7993_7146" x="123.594" y="191.701" width="619.337" height="619.337" filterUnits="userSpaceOnUse" color-interpolation-filters="sRGB">
<feFlood flood-opacity="0" result="BackgroundImageFix"/>
<feBlend mode="normal" in="SourceGraphic" in2="BackgroundImageFix" result="shape"/>
<feGaussianBlur stdDeviation="100" result="effect1_foregroundBlur_7993_7146"/>
</filter>
<filter id="filter12_f_7993_7146" x="-450.984" y="353.033" width="619.337" height="619.337" filterUnits="userSpaceOnUse" color-interpolation-filters="sRGB">
<feFlood flood-opacity="0" result="BackgroundImageFix"/>
<feBlend mode="normal" in="SourceGraphic" in2="BackgroundImageFix" result="shape"/>
<feGaussianBlur stdDeviation="100" result="effect1_foregroundBlur_7993_7146"/>
</filter>
<filter id="filter13_f_7993_7146" x="-450.984" y="1204.46" width="619.337" height="619.337" filterUnits="userSpaceOnUse" color-interpolation-filters="sRGB">
<feFlood flood-opacity="0" result="BackgroundImageFix"/>
<feBlend mode="normal" in="SourceGraphic" in2="BackgroundImageFix" result="shape"/>
<feGaussianBlur stdDeviation="100" result="effect1_foregroundBlur_7993_7146"/>
</filter>
<filter id="filter14_f_7993_7146" x="-274.952" y="1923.87" width="619.337" height="619.337" filterUnits="userSpaceOnUse" color-interpolation-filters="sRGB">
<feFlood flood-opacity="0" result="BackgroundImageFix"/>
<feBlend mode="normal" in="SourceGraphic" in2="BackgroundImageFix" result="shape"/>
<feGaussianBlur stdDeviation="100" result="effect1_foregroundBlur_7993_7146"/>
</filter>
<filter id="filter15_f_7993_7146" x="-406.976" y="2599.27" width="619.337" height="619.337" filterUnits="userSpaceOnUse" color-interpolation-filters="sRGB">
<feFlood flood-opacity="0" result="BackgroundImageFix"/>
<feBlend mode="normal" in="SourceGraphic" in2="BackgroundImageFix" result="shape"/>
<feGaussianBlur stdDeviation="100" result="effect1_foregroundBlur_7993_7146"/>
</filter>
<filter id="filter16_f_7993_7146" x="154.125" y="2227.04" width="619.337" height="619.337" filterUnits="userSpaceOnUse" color-interpolation-filters="sRGB">
<feFlood flood-opacity="0" result="BackgroundImageFix"/>
<feBlend mode="normal" in="SourceGraphic" in2="BackgroundImageFix" result="shape"/>
<feGaussianBlur stdDeviation="100" result="effect1_foregroundBlur_7993_7146"/>
</filter>
<filter id="filter17_f_7993_7146" x="-941.924" y="1195.67" width="1711.51" height="1711.51" filterUnits="userSpaceOnUse" color-interpolation-filters="sRGB">
<feFlood flood-opacity="0" result="BackgroundImageFix"/>
<feBlend mode="normal" in="SourceGraphic" in2="BackgroundImageFix" result="shape"/>
<feGaussianBlur stdDeviation="300" result="effect1_foregroundBlur_7993_7146"/>
</filter>
<filter id="filter18_f_7993_7146" x="-523.849" y="-421.009" width="1711.51" height="1711.51" filterUnits="userSpaceOnUse" color-interpolation-filters="sRGB">
<feFlood flood-opacity="0" result="BackgroundImageFix"/>
<feBlend mode="normal" in="SourceGraphic" in2="BackgroundImageFix" result="shape"/>
<feGaussianBlur stdDeviation="300" result="effect1_foregroundBlur_7993_7146"/>
</filter>
<filter id="filter19_f_7993_7146" x="-214.827" y="725.386" width="803.316" height="803.316" filterUnits="userSpaceOnUse" color-interpolation-filters="sRGB">
<feFlood flood-opacity="0" result="BackgroundImageFix"/>
<feBlend mode="normal" in="SourceGraphic" in2="BackgroundImageFix" result="shape"/>
<feGaussianBlur stdDeviation="130" result="effect1_foregroundBlur_7993_7146"/>
</filter>
<linearGradient id="paint0_linear_7993_7146" x1="-0.00012207" y1="1213" x2="93.3593" y2="1213" gradientUnits="userSpaceOnUse">
<stop stop-color="#CED7F3" stop-opacity="0.42"/>
<stop offset="1" stop-color="#CED7F3" stop-opacity="0"/>
</linearGradient>
<linearGradient id="paint1_linear_7993_7146" x1="375" y1="1170" x2="248.242" y2="1170" gradientUnits="userSpaceOnUse">
<stop stop-color="#CED7F3" stop-opacity="0.42"/>
<stop offset="1" stop-color="#CED7F3" stop-opacity="0"/>
</linearGradient>
<linearGradient id="paint2_linear_7993_7146" x1="13.2913" y1="2590.33" x2="13.2913" y2="3254.87" gradientUnits="userSpaceOnUse">
<stop stop-color="#CED7F3" stop-opacity="0.2"/>
<stop offset="1" stop-color="#CED7F3" stop-opacity="0"/>
</linearGradient>
<linearGradient id="paint3_linear_7993_7146" x1="34.5935" y1="2602.63" x2="34.5935" y2="3267.17" gradientUnits="userSpaceOnUse">
<stop stop-color="#CED7F3" stop-opacity="0.2"/>
<stop offset="1" stop-color="#CED7F3" stop-opacity="0"/>
</linearGradient>
<linearGradient id="paint4_linear_7993_7146" x1="55.8957" y1="2614.93" x2="55.8957" y2="3279.47" gradientUnits="userSpaceOnUse">
<stop stop-color="#CED7F3" stop-opacity="0.2"/>
<stop offset="1" stop-color="#CED7F3" stop-opacity="0"/>
</linearGradient>
<linearGradient id="paint5_linear_7993_7146" x1="77.1977" y1="2627.22" x2="77.1977" y2="3291.77" gradientUnits="userSpaceOnUse">
<stop stop-color="#CED7F3" stop-opacity="0.2"/>
<stop offset="1" stop-color="#CED7F3" stop-opacity="0"/>
</linearGradient>
<linearGradient id="paint6_linear_7993_7146" x1="98.4998" y1="2639.52" x2="98.4998" y2="3304.07" gradientUnits="userSpaceOnUse">
<stop stop-color="#CED7F3" stop-opacity="0.2"/>
<stop offset="1" stop-color="#CED7F3" stop-opacity="0"/>
</linearGradient>
<linearGradient id="paint7_linear_7993_7146" x1="119.802" y1="2651.82" x2="119.802" y2="3316.36" gradientUnits="userSpaceOnUse">
<stop stop-color="#CED7F3" stop-opacity="0.2"/>
<stop offset="1" stop-color="#CED7F3" stop-opacity="0"/>
</linearGradient>
<linearGradient id="paint8_linear_7993_7146" x1="141.104" y1="2664.12" x2="141.104" y2="3328.66" gradientUnits="userSpaceOnUse">
<stop stop-color="#CED7F3" stop-opacity="0.2"/>
<stop offset="1" stop-color="#CED7F3" stop-opacity="0"/>
</linearGradient>
<linearGradient id="paint9_linear_7993_7146" x1="162.406" y1="2676.42" x2="162.406" y2="3340.96" gradientUnits="userSpaceOnUse">
<stop stop-color="#CED7F3" stop-opacity="0.2"/>
<stop offset="1" stop-color="#CED7F3" stop-opacity="0"/>
</linearGradient>
<linearGradient id="paint10_linear_7993_7146" x1="183.708" y1="2688.72" x2="183.708" y2="3353.26" gradientUnits="userSpaceOnUse">
<stop stop-color="#CED7F3" stop-opacity="0.2"/>
<stop offset="1" stop-color="#CED7F3" stop-opacity="0"/>
</linearGradient>
<linearGradient id="paint11_linear_7993_7146" x1="205.01" y1="2701.02" x2="205.01" y2="3365.56" gradientUnits="userSpaceOnUse">
<stop stop-color="#CED7F3" stop-opacity="0.2"/>
<stop offset="1" stop-color="#CED7F3" stop-opacity="0"/>
</linearGradient>
<linearGradient id="paint12_linear_7993_7146" x1="226.312" y1="2713.32" x2="226.312" y2="3377.86" gradientUnits="userSpaceOnUse">
<stop stop-color="#CED7F3" stop-opacity="0.2"/>
<stop offset="1" stop-color="#CED7F3" stop-opacity="0"/>
</linearGradient>
<linearGradient id="paint13_linear_7993_7146" x1="247.614" y1="2725.61" x2="247.614" y2="3390.16" gradientUnits="userSpaceOnUse">
<stop stop-color="#CED7F3" stop-opacity="0.2"/>
<stop offset="1" stop-color="#CED7F3" stop-opacity="0"/>
</linearGradient>
<linearGradient id="paint14_linear_7993_7146" x1="268.916" y1="2737.91" x2="268.916" y2="3402.46" gradientUnits="userSpaceOnUse">
<stop stop-color="#CED7F3" stop-opacity="0.2"/>
<stop offset="1" stop-color="#CED7F3" stop-opacity="0"/>
</linearGradient>
<linearGradient id="paint15_linear_7993_7146" x1="290.218" y1="2750.21" x2="290.218" y2="3414.76" gradientUnits="userSpaceOnUse">
<stop stop-color="#CED7F3" stop-opacity="0.2"/>
<stop offset="1" stop-color="#CED7F3" stop-opacity="0"/>
</linearGradient>
<linearGradient id="paint16_linear_7993_7146" x1="311.521" y1="2762.51" x2="311.521" y2="3427.05" gradientUnits="userSpaceOnUse">
<stop stop-color="#CED7F3" stop-opacity="0.2"/>
<stop offset="1" stop-color="#CED7F3" stop-opacity="0"/>
</linearGradient>
<linearGradient id="paint17_linear_7993_7146" x1="332.822" y1="2774.81" x2="332.822" y2="3439.35" gradientUnits="userSpaceOnUse">
<stop stop-color="#CED7F3" stop-opacity="0.2"/>
<stop offset="1" stop-color="#CED7F3" stop-opacity="0"/>
</linearGradient>
<linearGradient id="paint18_linear_7993_7146" x1="354.125" y1="2787.11" x2="354.125" y2="3451.65" gradientUnits="userSpaceOnUse">
<stop stop-color="#CED7F3" stop-opacity="0.2"/>
<stop offset="1" stop-color="#CED7F3" stop-opacity="0"/>
</linearGradient>
<linearGradient id="paint19_linear_7993_7146" x1="375.427" y1="2799.41" x2="375.427" y2="3463.95" gradientUnits="userSpaceOnUse">
<stop stop-color="#CED7F3" stop-opacity="0.2"/>
<stop offset="1" stop-color="#CED7F3" stop-opacity="0"/>
</linearGradient>
<linearGradient id="paint20_linear_7993_7146" x1="396.729" y1="2811.71" x2="396.729" y2="3476.25" gradientUnits="userSpaceOnUse">
<stop stop-color="#CED7F3" stop-opacity="0.2"/>
<stop offset="1" stop-color="#CED7F3" stop-opacity="0"/>
</linearGradient>
<linearGradient id="paint21_linear_7993_7146" x1="418.031" y1="2824" x2="418.031" y2="3488.55" gradientUnits="userSpaceOnUse">
<stop stop-color="#CED7F3" stop-opacity="0.2"/>
<stop offset="1" stop-color="#CED7F3" stop-opacity="0"/>
</linearGradient>
<linearGradient id="paint22_linear_7993_7146" x1="13.2915" y1="877.116" x2="13.2915" y2="1541.66" gradientUnits="userSpaceOnUse">
<stop stop-color="#CED7F3" stop-opacity="0.2"/>
<stop offset="1" stop-color="#CED7F3" stop-opacity="0"/>
</linearGradient>
<linearGradient id="paint23_linear_7993_7146" x1="34.5937" y1="889.415" x2="34.5937" y2="1553.96" gradientUnits="userSpaceOnUse">
<stop stop-color="#CED7F3" stop-opacity="0.2"/>
<stop offset="1" stop-color="#CED7F3" stop-opacity="0"/>
</linearGradient>
<linearGradient id="paint24_linear_7993_7146" x1="55.8958" y1="901.714" x2="55.8958" y2="1566.26" gradientUnits="userSpaceOnUse">
<stop stop-color="#CED7F3" stop-opacity="0.2"/>
<stop offset="1" stop-color="#CED7F3" stop-opacity="0"/>
</linearGradient>
<linearGradient id="paint25_linear_7993_7146" x1="77.1978" y1="914.013" x2="77.1978" y2="1578.56" gradientUnits="userSpaceOnUse">
<stop stop-color="#CED7F3" stop-opacity="0.2"/>
<stop offset="1" stop-color="#CED7F3" stop-opacity="0"/>
</linearGradient>
<linearGradient id="paint26_linear_7993_7146" x1="98.5" y1="926.311" x2="98.5" y2="1590.85" gradientUnits="userSpaceOnUse">
<stop stop-color="#CED7F3" stop-opacity="0.2"/>
<stop offset="1" stop-color="#CED7F3" stop-opacity="0"/>
</linearGradient>
<linearGradient id="paint27_linear_7993_7146" x1="119.802" y1="938.61" x2="119.802" y2="1603.15" gradientUnits="userSpaceOnUse">
<stop stop-color="#CED7F3" stop-opacity="0.2"/>
<stop offset="1" stop-color="#CED7F3" stop-opacity="0"/>
</linearGradient>
<linearGradient id="paint28_linear_7993_7146" x1="141.104" y1="950.909" x2="141.104" y2="1615.45" gradientUnits="userSpaceOnUse">
<stop stop-color="#CED7F3" stop-opacity="0.2"/>
<stop offset="1" stop-color="#CED7F3" stop-opacity="0"/>
</linearGradient>
<linearGradient id="paint29_linear_7993_7146" x1="162.406" y1="963.208" x2="162.406" y2="1627.75" gradientUnits="userSpaceOnUse">
<stop stop-color="#CED7F3" stop-opacity="0.2"/>
<stop offset="1" stop-color="#CED7F3" stop-opacity="0"/>
</linearGradient>
<linearGradient id="paint30_linear_7993_7146" x1="183.708" y1="975.506" x2="183.708" y2="1640.05" gradientUnits="userSpaceOnUse">
<stop stop-color="#CED7F3" stop-opacity="0.2"/>
<stop offset="1" stop-color="#CED7F3" stop-opacity="0"/>
</linearGradient>
<linearGradient id="paint31_linear_7993_7146" x1="205.01" y1="987.805" x2="205.01" y2="1652.35" gradientUnits="userSpaceOnUse">
<stop stop-color="#CED7F3" stop-opacity="0.2"/>
<stop offset="1" stop-color="#CED7F3" stop-opacity="0"/>
</linearGradient>
<linearGradient id="paint32_linear_7993_7146" x1="226.312" y1="1000.1" x2="226.312" y2="1664.65" gradientUnits="userSpaceOnUse">
<stop stop-color="#CED7F3" stop-opacity="0.2"/>
<stop offset="1" stop-color="#CED7F3" stop-opacity="0"/>
</linearGradient>
<linearGradient id="paint33_linear_7993_7146" x1="247.614" y1="1012.4" x2="247.614" y2="1676.95" gradientUnits="userSpaceOnUse">
<stop stop-color="#CED7F3" stop-opacity="0.2"/>
<stop offset="1" stop-color="#CED7F3" stop-opacity="0"/>
</linearGradient>
<linearGradient id="paint34_linear_7993_7146" x1="268.917" y1="1024.7" x2="268.917" y2="1689.24" gradientUnits="userSpaceOnUse">
<stop stop-color="#CED7F3" stop-opacity="0.2"/>
<stop offset="1" stop-color="#CED7F3" stop-opacity="0"/>
</linearGradient>
<linearGradient id="paint35_linear_7993_7146" x1="290.218" y1="1037" x2="290.218" y2="1701.54" gradientUnits="userSpaceOnUse">
<stop stop-color="#CED7F3" stop-opacity="0.2"/>
<stop offset="1" stop-color="#CED7F3" stop-opacity="0"/>
</linearGradient>
<linearGradient id="paint36_linear_7993_7146" x1="311.521" y1="1049.3" x2="311.521" y2="1713.84" gradientUnits="userSpaceOnUse">
<stop stop-color="#CED7F3" stop-opacity="0.2"/>
<stop offset="1" stop-color="#CED7F3" stop-opacity="0"/>
</linearGradient>
<linearGradient id="paint37_linear_7993_7146" x1="332.823" y1="1061.6" x2="332.823" y2="1726.14" gradientUnits="userSpaceOnUse">
<stop stop-color="#CED7F3" stop-opacity="0.2"/>
<stop offset="1" stop-color="#CED7F3" stop-opacity="0"/>
</linearGradient>
<linearGradient id="paint38_linear_7993_7146" x1="354.125" y1="1073.9" x2="354.125" y2="1738.44" gradientUnits="userSpaceOnUse">
<stop stop-color="#CED7F3" stop-opacity="0.2"/>
<stop offset="1" stop-color="#CED7F3" stop-opacity="0"/>
</linearGradient>
<linearGradient id="paint39_linear_7993_7146" x1="375.427" y1="1086.2" x2="375.427" y2="1750.74" gradientUnits="userSpaceOnUse">
<stop stop-color="#CED7F3" stop-opacity="0.2"/>
<stop offset="1" stop-color="#CED7F3" stop-opacity="0"/>
</linearGradient>
<linearGradient id="paint40_linear_7993_7146" x1="396.729" y1="1098.49" x2="396.729" y2="1763.04" gradientUnits="userSpaceOnUse">
<stop stop-color="#CED7F3" stop-opacity="0.2"/>
<stop offset="1" stop-color="#CED7F3" stop-opacity="0"/>
</linearGradient>
<linearGradient id="paint41_linear_7993_7146" x1="418.031" y1="1110.79" x2="418.031" y2="1775.34" gradientUnits="userSpaceOnUse">
<stop stop-color="#CED7F3" stop-opacity="0.2"/>
<stop offset="1" stop-color="#CED7F3" stop-opacity="0"/>
</linearGradient>
<linearGradient id="paint42_linear_7993_7146" x1="13.2915" y1="-175.672" x2="13.2915" y2="488.871" gradientUnits="userSpaceOnUse">
<stop stop-color="#CED7F3" stop-opacity="0.2"/>
<stop offset="1" stop-color="#CED7F3" stop-opacity="0"/>
</linearGradient>
<linearGradient id="paint43_linear_7993_7146" x1="34.5937" y1="-163.373" x2="34.5937" y2="501.17" gradientUnits="userSpaceOnUse">
<stop stop-color="#CED7F3" stop-opacity="0.2"/>
<stop offset="1" stop-color="#CED7F3" stop-opacity="0"/>
</linearGradient>
<linearGradient id="paint44_linear_7993_7146" x1="55.8958" y1="-151.074" x2="55.8958" y2="513.469" gradientUnits="userSpaceOnUse">
<stop stop-color="#CED7F3" stop-opacity="0.2"/>
<stop offset="1" stop-color="#CED7F3" stop-opacity="0"/>
</linearGradient>
<linearGradient id="paint45_linear_7993_7146" x1="77.1978" y1="-138.775" x2="77.1978" y2="525.767" gradientUnits="userSpaceOnUse">
<stop stop-color="#CED7F3" stop-opacity="0.2"/>
<stop offset="1" stop-color="#CED7F3" stop-opacity="0"/>
</linearGradient>
<linearGradient id="paint46_linear_7993_7146" x1="98.5" y1="-126.477" x2="98.5" y2="538.066" gradientUnits="userSpaceOnUse">
<stop stop-color="#CED7F3" stop-opacity="0.2"/>
<stop offset="1" stop-color="#CED7F3" stop-opacity="0"/>
</linearGradient>
<linearGradient id="paint47_linear_7993_7146" x1="119.802" y1="-114.178" x2="119.802" y2="550.365" gradientUnits="userSpaceOnUse">
<stop stop-color="#CED7F3" stop-opacity="0.2"/>
<stop offset="1" stop-color="#CED7F3" stop-opacity="0"/>
</linearGradient>
<linearGradient id="paint48_linear_7993_7146" x1="141.104" y1="-101.879" x2="141.104" y2="562.664" gradientUnits="userSpaceOnUse">
<stop stop-color="#CED7F3" stop-opacity="0.2"/>
<stop offset="1" stop-color="#CED7F3" stop-opacity="0"/>
</linearGradient>
<linearGradient id="paint49_linear_7993_7146" x1="162.406" y1="-89.5803" x2="162.406" y2="574.962" gradientUnits="userSpaceOnUse">
<stop stop-color="#CED7F3" stop-opacity="0.2"/>
<stop offset="1" stop-color="#CED7F3" stop-opacity="0"/>
</linearGradient>
<linearGradient id="paint50_linear_7993_7146" x1="183.708" y1="-77.2815" x2="183.708" y2="587.261" gradientUnits="userSpaceOnUse">
<stop stop-color="#CED7F3" stop-opacity="0.2"/>
<stop offset="1" stop-color="#CED7F3" stop-opacity="0"/>
</linearGradient>
<linearGradient id="paint51_linear_7993_7146" x1="205.01" y1="-64.9832" x2="205.01" y2="599.56" gradientUnits="userSpaceOnUse">
<stop stop-color="#CED7F3" stop-opacity="0.2"/>
<stop offset="1" stop-color="#CED7F3" stop-opacity="0"/>
</linearGradient>
<linearGradient id="paint52_linear_7993_7146" x1="226.312" y1="-52.6843" x2="226.312" y2="611.858" gradientUnits="userSpaceOnUse">
<stop stop-color="#CED7F3" stop-opacity="0.2"/>
<stop offset="1" stop-color="#CED7F3" stop-opacity="0"/>
</linearGradient>
<linearGradient id="paint53_linear_7993_7146" x1="247.614" y1="-40.3853" x2="247.614" y2="624.158" gradientUnits="userSpaceOnUse">
<stop stop-color="#CED7F3" stop-opacity="0.2"/>
<stop offset="1" stop-color="#CED7F3" stop-opacity="0"/>
</linearGradient>
<linearGradient id="paint54_linear_7993_7146" x1="268.917" y1="-28.0864" x2="268.917" y2="636.456" gradientUnits="userSpaceOnUse">
<stop stop-color="#CED7F3" stop-opacity="0.2"/>
<stop offset="1" stop-color="#CED7F3" stop-opacity="0"/>
</linearGradient>
<linearGradient id="paint55_linear_7993_7146" x1="290.218" y1="-15.7876" x2="290.218" y2="648.755" gradientUnits="userSpaceOnUse">
<stop stop-color="#CED7F3" stop-opacity="0.2"/>
<stop offset="1" stop-color="#CED7F3" stop-opacity="0"/>
</linearGradient>
<linearGradient id="paint56_linear_7993_7146" x1="311.521" y1="-3.48926" x2="311.521" y2="661.054" gradientUnits="userSpaceOnUse">
<stop stop-color="#CED7F3" stop-opacity="0.2"/>
<stop offset="1" stop-color="#CED7F3" stop-opacity="0"/>
</linearGradient>
<linearGradient id="paint57_linear_7993_7146" x1="332.823" y1="8.80957" x2="332.823" y2="673.352" gradientUnits="userSpaceOnUse">
<stop stop-color="#CED7F3" stop-opacity="0.2"/>
<stop offset="1" stop-color="#CED7F3" stop-opacity="0"/>
</linearGradient>
<linearGradient id="paint58_linear_7993_7146" x1="354.125" y1="21.1082" x2="354.125" y2="685.651" gradientUnits="userSpaceOnUse">
<stop stop-color="#CED7F3" stop-opacity="0.2"/>
<stop offset="1" stop-color="#CED7F3" stop-opacity="0"/>
</linearGradient>
<linearGradient id="paint59_linear_7993_7146" x1="375.427" y1="33.4075" x2="375.427" y2="697.95" gradientUnits="userSpaceOnUse">
<stop stop-color="#CED7F3" stop-opacity="0.2"/>
<stop offset="1" stop-color="#CED7F3" stop-opacity="0"/>
</linearGradient>
<linearGradient id="paint60_linear_7993_7146" x1="396.729" y1="45.7063" x2="396.729" y2="710.249" gradientUnits="userSpaceOnUse">
<stop stop-color="#CED7F3" stop-opacity="0.2"/>
<stop offset="1" stop-color="#CED7F3" stop-opacity="0"/>
</linearGradient>
<linearGradient id="paint61_linear_7993_7146" x1="418.031" y1="58.0046" x2="418.031" y2="722.547" gradientUnits="userSpaceOnUse">
<stop stop-color="#CED7F3" stop-opacity="0.2"/>
<stop offset="1" stop-color="#CED7F3" stop-opacity="0"/>
</linearGradient>
<linearGradient id="paint62_linear_7993_7146" x1="294.465" y1="1682.43" x2="294.465" y2="2346.97" gradientUnits="userSpaceOnUse">
<stop stop-color="#CED7F3" stop-opacity="0.2"/>
<stop offset="1" stop-color="#CED7F3" stop-opacity="0"/>
</linearGradient>
<linearGradient id="paint63_linear_7993_7146" x1="315.767" y1="1694.73" x2="315.767" y2="2359.27" gradientUnits="userSpaceOnUse">
<stop stop-color="#CED7F3" stop-opacity="0.2"/>
<stop offset="1" stop-color="#CED7F3" stop-opacity="0"/>
</linearGradient>
<linearGradient id="paint64_linear_7993_7146" x1="337.069" y1="1707.03" x2="337.069" y2="2371.57" gradientUnits="userSpaceOnUse">
<stop stop-color="#CED7F3" stop-opacity="0.2"/>
<stop offset="1" stop-color="#CED7F3" stop-opacity="0"/>
</linearGradient>
<linearGradient id="paint65_linear_7993_7146" x1="358.371" y1="1719.33" x2="358.371" y2="2383.87" gradientUnits="userSpaceOnUse">
<stop stop-color="#CED7F3" stop-opacity="0.2"/>
<stop offset="1" stop-color="#CED7F3" stop-opacity="0"/>
</linearGradient>
<linearGradient id="paint66_linear_7993_7146" x1="379.673" y1="1731.63" x2="379.673" y2="2396.17" gradientUnits="userSpaceOnUse">
<stop stop-color="#CED7F3" stop-opacity="0.2"/>
<stop offset="1" stop-color="#CED7F3" stop-opacity="0"/>
</linearGradient>
<linearGradient id="paint67_linear_7993_7146" x1="400.975" y1="1743.93" x2="400.975" y2="2408.47" gradientUnits="userSpaceOnUse">
<stop stop-color="#CED7F3" stop-opacity="0.2"/>
<stop offset="1" stop-color="#CED7F3" stop-opacity="0"/>
</linearGradient>
<linearGradient id="paint68_linear_7993_7146" x1="422.277" y1="1756.22" x2="422.277" y2="2420.77" gradientUnits="userSpaceOnUse">
<stop stop-color="#CED7F3" stop-opacity="0.2"/>
<stop offset="1" stop-color="#CED7F3" stop-opacity="0"/>
</linearGradient>
<linearGradient id="paint69_linear_7993_7146" x1="443.579" y1="1768.52" x2="443.579" y2="2433.07" gradientUnits="userSpaceOnUse">
<stop stop-color="#CED7F3" stop-opacity="0.2"/>
<stop offset="1" stop-color="#CED7F3" stop-opacity="0"/>
</linearGradient>
<linearGradient id="paint70_linear_7993_7146" x1="464.881" y1="1780.82" x2="464.881" y2="2445.36" gradientUnits="userSpaceOnUse">
<stop stop-color="#CED7F3" stop-opacity="0.2"/>
<stop offset="1" stop-color="#CED7F3" stop-opacity="0"/>
</linearGradient>
<linearGradient id="paint71_linear_7993_7146" x1="486.183" y1="1793.12" x2="486.183" y2="2457.66" gradientUnits="userSpaceOnUse">
<stop stop-color="#CED7F3" stop-opacity="0.2"/>
<stop offset="1" stop-color="#CED7F3" stop-opacity="0"/>
</linearGradient>
<linearGradient id="paint72_linear_7993_7146" x1="507.485" y1="1805.42" x2="507.485" y2="2469.96" gradientUnits="userSpaceOnUse">
<stop stop-color="#CED7F3" stop-opacity="0.2"/>
<stop offset="1" stop-color="#CED7F3" stop-opacity="0"/>
</linearGradient>
<linearGradient id="paint73_linear_7993_7146" x1="528.787" y1="1817.72" x2="528.787" y2="2482.26" gradientUnits="userSpaceOnUse">
<stop stop-color="#CED7F3" stop-opacity="0.2"/>
<stop offset="1" stop-color="#CED7F3" stop-opacity="0"/>
</linearGradient>
<linearGradient id="paint74_linear_7993_7146" x1="550.089" y1="1830.02" x2="550.089" y2="2494.56" gradientUnits="userSpaceOnUse">
<stop stop-color="#CED7F3" stop-opacity="0.2"/>
<stop offset="1" stop-color="#CED7F3" stop-opacity="0"/>
</linearGradient>
<linearGradient id="paint75_linear_7993_7146" x1="571.391" y1="1842.32" x2="571.391" y2="2506.86" gradientUnits="userSpaceOnUse">
<stop stop-color="#CED7F3" stop-opacity="0.2"/>
<stop offset="1" stop-color="#CED7F3" stop-opacity="0"/>
</linearGradient>
<linearGradient id="paint76_linear_7993_7146" x1="592.693" y1="1854.61" x2="592.693" y2="2519.16" gradientUnits="userSpaceOnUse">
<stop stop-color="#CED7F3" stop-opacity="0.2"/>
<stop offset="1" stop-color="#CED7F3" stop-opacity="0"/>
</linearGradient>
<linearGradient id="paint77_linear_7993_7146" x1="613.996" y1="1866.91" x2="613.996" y2="2531.46" gradientUnits="userSpaceOnUse">
<stop stop-color="#CED7F3" stop-opacity="0.2"/>
<stop offset="1" stop-color="#CED7F3" stop-opacity="0"/>
</linearGradient>
<linearGradient id="paint78_linear_7993_7146" x1="635.298" y1="1879.21" x2="635.298" y2="2543.76" gradientUnits="userSpaceOnUse">
<stop stop-color="#CED7F3" stop-opacity="0.2"/>
<stop offset="1" stop-color="#CED7F3" stop-opacity="0"/>
</linearGradient>
<linearGradient id="paint79_linear_7993_7146" x1="656.6" y1="1891.51" x2="656.6" y2="2556.05" gradientUnits="userSpaceOnUse">
<stop stop-color="#CED7F3" stop-opacity="0.2"/>
<stop offset="1" stop-color="#CED7F3" stop-opacity="0"/>
</linearGradient>
<linearGradient id="paint80_linear_7993_7146" x1="677.902" y1="1903.81" x2="677.902" y2="2568.35" gradientUnits="userSpaceOnUse">
<stop stop-color="#CED7F3" stop-opacity="0.2"/>
<stop offset="1" stop-color="#CED7F3" stop-opacity="0"/>
</linearGradient>
<linearGradient id="paint81_linear_7993_7146" x1="699.204" y1="1916.11" x2="699.204" y2="2580.65" gradientUnits="userSpaceOnUse">
<stop stop-color="#CED7F3" stop-opacity="0.2"/>
<stop offset="1" stop-color="#CED7F3" stop-opacity="0"/>
</linearGradient>
</defs>
</svg>
