<svg width="315" height="206" viewBox="0 0 315 206" fill="none" xmlns="http://www.w3.org/2000/svg">
<path fill-rule="evenodd" clip-rule="evenodd" d="M26 0L0 31V50.8857L26 0ZM0 111.557V70.4571L36 0H57L0 111.557ZM0 172.229V131.129L67 0H88L0 172.229ZM0 205.5H14L119 0H98L0 191.8V205.5ZM129 0L24 205.5H45L142.198 15.2696L129.5 0H129ZM148.392 22.7181L55 205.5H76L165.161 31H155.279L148.392 22.7181ZM175.161 31L86 205.5H107L196.161 31H175.161ZM206.161 31L117 205.5H138L227.161 31H206.161ZM237.161 31L148 205.5H169L258.161 31H237.161ZM268.161 31L179 205.5H200L289.161 31H268.161ZM297.161 34.9135L210 205.5H231L310.024 50.839L297.161 34.9135ZM315 60.6712L241 205.5H262L315 101.771V60.6712ZM315 123.3L273 205.5H294L315 164.4V123.3ZM315 183.971L304 205.5H315V183.971Z" fill="url(#paint0_linear_7993_7564)" fill-opacity="0.05"/>
<defs>
<linearGradient id="paint0_linear_7993_7564" x1="98.4128" y1="0" x2="98.4128" y2="205.5" gradientUnits="userSpaceOnUse">
<stop stop-color="#8EFCDC"/>
<stop offset="1" stop-color="#102532"/>
</linearGradient>
</defs>
</svg>
