<svg width="528" height="303" viewBox="0 0 528 303" fill="none" xmlns="http://www.w3.org/2000/svg">
<g filter="url(#filter0_d_9717_619)">
<path d="M61 241.5V91.5L91 61.5H447H467V131.5L465 241.5H424.5L416.5 230.5H370L360 241.5H61Z" fill="#14916C" fill-opacity="0.65" shape-rendering="crispEdges"/>
<path d="M447 61.5H91L61 91.5V241.5H360L370 230.5H416.5L424.5 241.5H465L467 131.5M447 61.5V111.5L467 131.5M447 61.5H467V131.5" stroke="#8EFCDC" stroke-width="2" stroke-linejoin="round" shape-rendering="crispEdges"/>
</g>
<path d="M131 69.5L61 99.5V115.5L131 85.5V69.5Z" fill="#8EFCDC" fill-opacity="0.4"/>
<path d="M91 61.5H108.667H126.333L64.213 88.123L91 61.5Z" fill="#8EFCDC" fill-opacity="0.4"/>
<path d="M61 151.5L131 121.5V137.5L61 167.5V151.5Z" fill="#8EFCDC" fill-opacity="0.4"/>
<path d="M61 125.5L131 95.5V111.5L61 141.5V125.5Z" fill="#8EFCDC" fill-opacity="0.4"/>
<path d="M61 203.5L131 173.5V189.5L61 219.5V203.5Z" fill="#8EFCDC" fill-opacity="0.4"/>
<path d="M131 147.5L61 177.5V193.5L131 163.5V147.5Z" fill="#8EFCDC" fill-opacity="0.4"/>
<path d="M93.6667 241.5L131 225.5V241.5H93.6667Z" fill="#8EFCDC" fill-opacity="0.4"/>
<path d="M131 199.5L61 229.5V241.5H70.3333L131 215.5V199.5Z" fill="#8EFCDC" fill-opacity="0.4"/>
<defs>
<filter id="filter0_d_9717_619" x="0" y="0.5" width="528" height="302" filterUnits="userSpaceOnUse" color-interpolation-filters="sRGB">
<feFlood flood-opacity="0" result="BackgroundImageFix"/>
<feColorMatrix in="SourceAlpha" type="matrix" values="0 0 0 0 0 0 0 0 0 0 0 0 0 0 0 0 0 0 127 0" result="hardAlpha"/>
<feOffset/>
<feGaussianBlur stdDeviation="30"/>
<feComposite in2="hardAlpha" operator="out"/>
<feColorMatrix type="matrix" values="0 0 0 0 0.556863 0 0 0 0 0.988235 0 0 0 0 0.862745 0 0 0 0.3 0"/>
<feBlend mode="normal" in2="BackgroundImageFix" result="effect1_dropShadow_9717_619"/>
<feBlend mode="normal" in="SourceGraphic" in2="effect1_dropShadow_9717_619" result="shape"/>
</filter>
</defs>
</svg>
