<svg width="150" height="95" viewBox="0 0 150 95" fill="none" xmlns="http://www.w3.org/2000/svg">
<path d="M47.4264 2.5054C46.8025 1.2527 47.4264 0 48.6743 0H73.6326C74.2566 0 74.2566 0 74.8805 0.626349L113.566 46.3498C114.19 46.9762 114.19 47.6025 113.566 48.2289L74.8805 93.9523C74.8805 93.9523 74.2566 94.5787 73.6326 94.5787H48.6743C47.4264 94.5787 46.8025 93.326 47.4264 92.0733L83.6159 47.6025C84.2399 46.9762 84.2399 46.3498 83.6159 45.7235L47.4264 2.5054ZM148.507 0C149.755 0 150.379 1.2527 149.755 2.5054L117.934 41.339L103.583 23.1749L122.925 0.626349C122.925 0.626349 123.549 0 124.173 0C123.549 0 148.507 0 148.507 0ZM102.959 70.7774L122.301 93.9523C122.301 94.5787 122.925 94.5787 123.549 94.5787H148.507C149.755 94.5787 150.379 93.326 149.755 92.0733L117.934 53.2397L102.959 70.7774Z" fill="white"/>
<path d="M13.7312 1.87905C13.7312 0.626349 14.9791 0 15.6031 0H31.8259C32.4499 0 33.0739 0 33.0739 0.626349L48.0488 18.1641C49.2967 19.4168 48.0488 21.2959 46.8009 21.2959H15.6031C14.3552 21.2959 13.7312 20.6695 13.7312 19.4168V1.87905Z" fill="#C4C4C4"/>
<path d="M13.727 1.87905C13.727 1.2527 14.975 0 15.5989 0H32.4457C33.0697 0 33.6937 0 33.6937 0.626349L49.2926 18.1641C50.5405 19.4168 49.2926 21.2959 48.0447 21.2959H15.5989C14.351 21.2959 13.727 20.6695 13.727 19.4168V12.527H1.87187C0.623957 12.527 0 11.9006 0 10.6479C0 9.39523 0.623957 8.76888 1.87187 8.76888H13.727V1.87905ZM23.0864 38.2073C23.0864 36.9546 23.7104 36.3282 24.9583 36.3282H61.1478C61.7717 36.3282 62.3957 36.3282 62.3957 36.9546L69.8831 46.3498C70.5071 46.9762 70.5071 48.2289 69.8831 48.8552L62.3957 58.2504C62.3957 58.2504 61.7717 58.8768 61.1478 58.8768H24.9583C24.3343 58.8768 23.0864 57.6241 23.0864 56.3714V49.4816H11.2312C9.98331 49.4816 9.35935 48.8552 9.35935 47.6025C9.35935 46.3498 9.98331 45.7235 11.2312 45.7235H23.0864V38.2073ZM13.727 92.6996C13.727 93.9523 14.351 94.5787 15.5989 94.5787H31.8218C32.4457 94.5787 33.0697 94.5787 33.0697 93.9523L48.0447 76.4146C49.2926 75.1619 48.0447 73.2828 46.7968 73.2828H15.5989C14.351 73.2828 13.727 73.9092 13.727 75.1619V82.0517H1.87187C0.623957 82.0517 0 82.678 0 83.9307C0 85.1834 0.623957 85.8098 1.87187 85.8098H13.727V92.6996Z" fill="url(#paint0_linear_8073_7578)"/>
<defs>
<linearGradient id="paint0_linear_8073_7578" x1="35.5093" y1="94.6003" x2="35.5093" y2="0.144376" gradientUnits="userSpaceOnUse">
<stop stop-color="#00E5FD"/>
<stop offset="1" stop-color="#00FDB9"/>
</linearGradient>
</defs>
</svg>
