<svg width="111" height="136" viewBox="0 0 111 136" fill="none" xmlns="http://www.w3.org/2000/svg">
<path fill-rule="evenodd" clip-rule="evenodd" d="M86.3294 8.84661C110.662 17.7818 128 40.8953 128 68.0037C128 95.1121 110.662 118.218 86.3294 127.161V117.295C105.427 108.869 118.743 89.9651 118.743 68.0037C118.743 46.0422 105.427 27.138 86.3294 18.7123V8.84661ZM76.6307 47.3715H79.589V37.6313C74.9082 35.2904 69.6058 33.9686 63.9963 33.9686C62.401 33.9686 60.8283 34.0794 59.293 34.2862V53.0427H62.2512V68.2695H59.293V84.2274H55.376V68.2695H52.4178V53.0427H55.376V35.0394C40.4873 38.8128 29.478 52.1418 29.478 68.0037C29.478 78.9327 34.7055 88.6507 42.8239 94.8832V88.8427H39.8657V73.6159H42.8239V53.3233H46.7409V73.6159H49.6991V88.8427H46.7409V97.4899C51.8186 100.385 57.7052 102.039 63.9963 102.039C64.8276 102.039 65.6589 102.009 66.4752 101.95V85.6378H63.5169V70.411H66.4752V54.1283H70.3921V70.411H73.3504V85.6378H70.3921V101.448C80.8397 99.5133 89.6322 92.9337 94.4778 83.9689H110.093C105.39 97.1576 95.032 107.725 81.8882 112.827V136H70.3921V115.752C68.2951 116.025 66.1607 116.165 63.9888 116.165C61.8169 116.165 59.6824 116.025 57.5854 115.752V136H46.0893V112.827C27.9651 105.79 15.1359 88.3627 15.1359 67.9963C15.1359 47.6299 27.9801 30.2099 46.1043 23.1725V0H57.6004V20.2482C59.6974 19.975 61.8318 19.8347 64.0037 19.8347C66.1756 19.8347 68.3101 19.975 70.4071 20.2482V0H81.9032V23.1725C95.047 28.2826 105.405 38.8424 110.108 52.0311H94.4928C91.8715 47.1795 88.0894 43.022 83.5134 39.9279V47.3715H86.4717V62.5983H83.5134V80.7936H79.5965V62.5983H76.6382V47.3715H76.6307ZM41.6706 127.153C17.3378 118.218 0 95.1047 0 68.0037C0 40.9026 17.3378 17.7818 41.6706 8.84661V18.7123C22.5728 27.1306 9.2568 46.0349 9.2568 68.0037C9.2568 89.9725 22.5728 108.869 41.6706 117.295V127.161V127.153Z" fill="url(#paint0_linear_8073_7541)"/>
<defs>
<linearGradient id="paint0_linear_8073_7541" x1="29.8667" y1="8.5" x2="93.4668" y2="136.199" gradientUnits="userSpaceOnUse">
<stop stop-color="white"/>
<stop offset="1" stop-color="#999999"/>
</linearGradient>
</defs>
</svg>
