<svg width="73" height="24" viewBox="0 0 73 24" fill="none" xmlns="http://www.w3.org/2000/svg">
<path fill-rule="evenodd" clip-rule="evenodd" d="M44.5121 0.129883H46.5894V17.9348H44.5121V0.129883ZM63.2074 0.129883H61.1301V17.9348H63.2074V16.5097C64.2448 17.3979 65.5923 17.9344 67.0651 17.9344C70.3429 17.9344 73 15.2772 73 11.9994C73 8.72162 70.3429 6.06445 67.0651 6.06445C65.5923 6.06445 64.2448 6.60092 63.2074 7.4891V0.129883ZM63.2074 11.9994C63.2074 9.86885 64.9345 8.14169 67.0651 8.14169C69.1956 8.14169 70.9228 9.86885 70.9228 11.9994C70.9228 14.13 69.1956 15.8571 67.0651 15.8571C64.9345 15.8571 63.2074 14.13 63.2074 11.9994ZM47.7764 11.9994C47.7764 8.72162 50.4335 6.06445 53.7113 6.06445C55.1841 6.06445 56.5316 6.60093 57.5691 7.48912V6.06445H59.6463V17.9344H57.5691V16.5097C56.5316 17.3979 55.1841 17.9344 53.7113 17.9344C50.4335 17.9344 47.7764 15.2772 47.7764 11.9994ZM49.8536 11.9994C49.8536 9.86885 51.5808 8.14169 53.7113 8.14169C55.8419 8.14169 57.569 9.86885 57.569 11.9994C57.569 14.13 55.8419 15.8571 53.7113 15.8571C51.5808 15.8571 49.8536 14.13 49.8536 11.9994ZM19.2887 6.06445C16.0109 6.06445 13.3538 8.72162 13.3538 11.9994C13.3538 15.2772 16.0109 17.9344 19.2887 17.9344C20.7614 17.9344 22.1088 17.398 23.1462 16.5099V17.9344H25.2235V12.0489L25.2237 11.9994L25.2235 11.9499V6.06445H23.1462V7.48892C22.1088 6.60084 20.7614 6.06445 19.2887 6.06445ZM19.2887 15.8571C21.406 15.8571 23.1248 14.1515 23.1462 12.0393V11.9595C23.1248 9.84732 21.406 8.14169 19.2887 8.14169C17.1582 8.14169 15.431 9.86885 15.431 11.9994C15.431 14.13 17.1582 15.8571 19.2887 15.8571ZM0 11.9994C0 8.72162 2.65717 6.06445 5.93496 6.06445H11.8699V8.14169H10.4453C11.3335 9.17914 11.8699 10.5266 11.8699 11.9994C11.8699 15.2772 9.21275 17.9344 5.93496 17.9344C2.65717 17.9344 0 15.2772 0 11.9994ZM5.93496 23.8693C2.65717 23.8693 0 21.2122 0 17.9344H2.07724C2.07724 20.0649 3.8044 21.7921 5.93496 21.7921C8.06552 21.7921 9.79268 20.0649 9.79268 17.9344H11.8699C11.8699 21.2122 9.21275 23.8693 5.93496 23.8693ZM2.07731 11.9995C2.07731 9.8689 3.80447 8.14174 5.93504 8.14174C8.0656 8.14174 9.79276 9.8689 9.79276 11.9995C9.79276 14.13 8.0656 15.8572 5.93504 15.8572C3.80447 15.8572 2.07731 14.13 2.07731 11.9995ZM36.7968 6.06445C40.0746 6.06445 42.7317 8.72162 42.7317 11.9994V17.9344H40.6545V11.9994C40.6545 9.86885 38.9273 8.14169 36.7968 8.14169C34.6662 8.14169 32.9391 9.86885 32.9391 11.9994V17.9344H30.8618V11.9994V6.06445H32.9391V7.48909C33.9765 6.60091 35.324 6.06445 36.7968 6.06445ZM29.0814 6.06445H27.0042V17.9344H29.0814V7.54819V6.06445Z" fill="#8EFCDC"/>
</svg>
