<svg width="132" height="132" viewBox="0 0 132 132" fill="none" xmlns="http://www.w3.org/2000/svg">
<g clip-path="url(#clip0_7993_7456)">
<path d="M0 0H256V256H0V0Z" fill="url(#paint0_linear_7993_7456)"/>
<g filter="url(#filter0_d_7993_7456)">
<path d="M12.6094 17.9146C12.6094 17.9146 30.3305 55.2051 31.591 58.3188C33.4447 62.6929 49.6087 73.0719 49.6087 73.0719L46.717 75.5184C46.717 75.5184 57.2458 94.868 66.2176 101.466C75.1894 108.064 80.4538 112.957 80.4538 112.957C80.4538 112.957 76.9689 117.035 76.524 121.335C76.1533 125.635 84.3094 162.554 89.5739 169.597C94.8383 176.64 108.111 185.611 111.67 185.388C115.229 185.166 113.597 177.382 111.67 165.668C109.742 153.955 108.407 146.541 113.746 143.576C119.084 140.61 124.942 137.719 125.164 135.346C125.387 132.974 125.387 132.974 125.387 132.974C125.387 132.974 141.996 141.5 167.799 139.943C193.602 138.386 215.698 133.419 215.698 133.419C215.698 133.419 236.236 148.765 242.02 150.618C247.729 152.472 252.252 153.806 252.845 152.62C253.438 151.434 233.196 129.193 233.196 129.193L257.442 119.704C257.442 119.704 288.139 124.004 291.031 118.888C293.997 113.847 292.217 110.881 293.107 109.325C293.997 107.768 295.183 106.211 297.63 105.395C300.077 104.58 308.974 101.985 314.684 104.061C320.393 106.137 356.873 146.022 362.36 147.801C367.847 149.581 378.154 150.767 378.747 148.172C379.34 145.651 374.446 138.386 372.518 133.122C370.591 127.859 358.875 100.502 359.469 90.7164C360.062 80.9304 362.953 55.9465 361.026 45.4191C359.098 34.8918 352.647 13.6147 348.717 13.6147C344.787 13.6147 355.909 43.8623 338.93 64.398C321.95 84.9337 319.577 90.5681 312.385 90.7905C305.193 91.0129 290.289 89.6043 290.289 89.6043C290.289 89.6043 282.875 75.9633 280.354 75.3702C277.833 74.7771 241.278 73.2202 235.272 71.0703C229.192 68.9203 205.762 60.3205 205.762 60.3205C205.762 60.3205 196.864 41.9347 194.937 25.1799C193.528 13.0216 199.089 1.30808 197.754 0.789125C186.78 -3.43664 154.23 35.3366 144.443 35.9297C143.256 36.0038 112.782 25.1799 81.1953 20.1387C46.7911 14.5785 11.0523 14.8009 12.6094 17.9146Z" fill="#525355"/>
<path d="M12.6101 17.9133C11.4238 15.4668 51.6855 17.5426 69.6291 18.4322C87.5726 19.3218 144.443 35.8542 144.443 35.8542C144.443 35.8542 154.824 29.9233 156.233 28.8113C157.567 27.6992 189.228 2.49292 192.342 1.08433C195.456 -0.324256 198.57 0.34297 198.57 0.34297C198.57 0.34297 194.789 18.6546 194.641 29.4044C194.492 40.1541 206.356 60.6899 206.356 60.6899L237.053 71.662L280.799 75.6654L293.108 89.9737C293.108 89.9737 309.42 93.4581 319.059 88.2685C328.698 83.079 341.526 57.502 346.493 50.3108C351.461 43.1196 347.828 15.615 350.72 15.2444C353.612 14.8737 360.062 41.0438 361.397 47.8643C362.732 54.6848 360.137 82.7083 359.543 90.9374C358.876 99.1666 367.477 120.073 369.108 124.299C370.74 128.525 378.97 147.207 378.97 147.207L374.818 149.802C374.818 149.802 367.329 149.134 362.509 147.948C357.616 146.762 342.786 128.45 342.786 128.45L316.316 105.097L329.143 99.4631L326.4 99.8338C326.4 99.8338 323.286 99.9821 322.766 99.4631C322.247 98.9442 321.728 99.0924 321.358 98.9441C320.987 98.7959 319.652 98.9442 318.763 99.0924C317.873 99.2407 317.725 99.2407 316.909 99.2407C316.093 99.2407 315.871 99.2407 313.943 98.9441C312.015 98.6476 313.053 98.9441 312.386 98.4252C311.719 97.9062 311.348 97.9062 310.31 97.9062C309.272 97.9062 308.753 97.9062 308.753 97.9062C308.753 97.9062 307.196 98.2769 306.825 98.2769C306.454 98.2769 304.378 98.6476 304.378 98.6476L302.154 98.7959L300.226 99.0924L297.631 100.427C297.631 100.427 295.406 100.279 294.887 100.279C294.368 100.279 290.735 100.279 290.735 100.279C290.735 100.279 289.845 100.649 289.326 100.946C288.807 101.242 286.435 100.279 285.841 100.13C285.248 99.9821 283.395 100.649 283.395 100.649C283.395 100.649 281.022 101.168 280.651 101.168C280.28 101.168 279.094 101.835 278.056 101.835C277.018 101.835 275.461 101.317 275.461 101.317C275.461 101.317 274.052 100.798 273.385 100.649C272.717 100.501 269.751 101.02 269.751 101.02C269.751 101.02 269.084 101.687 268.194 102.206C267.305 102.725 265.822 102.725 265.451 102.725C265.08 102.725 265.451 105.32 264.116 105.172C262.782 105.097 262.93 104.356 262.337 104.208C261.744 104.06 259.371 104.727 259.371 104.727L258.333 105.246C258.333 105.246 257.072 105.765 256.479 105.839C255.886 105.913 255.589 105.468 255.293 105.32C254.996 105.246 253.513 105.32 253.217 105.32C252.92 105.32 252.253 105.913 251.363 106.135C250.473 106.358 250.103 107.173 250.103 107.173L247.063 108.211L245.876 107.766C245.876 107.766 245.357 107.915 244.986 107.766C244.616 107.618 243.726 107.915 243.133 107.766C242.54 107.618 240.463 106.506 239.648 106.209C238.832 105.913 238.832 106.728 238.832 106.728C238.832 106.728 238.461 107.396 238.165 107.766C237.868 108.137 236.089 107.766 236.089 107.766L234.309 108.582C234.309 108.582 232.456 108.656 231.937 108.582C231.418 108.508 229.86 108.582 229.86 108.582L227.488 108.359L226.227 108.656L224.003 109.323L222.817 109.027L218.738 108.804L217.552 109.62L216.885 109.99L216.217 110.584L214.438 110.658L215.921 113.697L244.393 139.274L251.215 151.952C251.215 151.952 242.243 150.617 239.5 149.431C236.83 148.171 226.598 141.128 226.598 141.128L200.943 124.225C200.943 124.225 194.196 122.668 174.399 112.956C154.601 103.244 148.67 90.8633 148.67 90.8633L145.555 88.3427L143.183 86.7858L141.996 84.6359C141.996 84.6359 139.846 85.7479 139.031 86.7858C138.215 87.7496 138.067 80.929 138.067 80.929L135.546 80.7066C135.546 80.7066 134.211 81.0773 132.802 81.8928C131.468 82.7083 130.504 83.079 130.504 83.079C130.504 83.079 130.059 81.5221 130.43 80.5584C130.8 79.5946 129.095 78.7791 129.095 78.7791H126.722L125.536 77.4446H124.349H122.792C122.792 77.4446 121.828 75.8878 120.42 75.6654C119.011 75.443 119.233 75.6654 119.233 75.6654L118.047 73.1447C118.047 73.1447 116.712 70.4017 116.119 69.8086C115.526 69.2155 114.785 69.8086 114.785 69.8086C114.785 69.8086 113.821 69.4379 111.819 67.1397C109.891 64.9156 110.484 67.8069 108.853 67.0656C107.296 66.2501 106.703 67.4363 105.516 67.0656C104.33 66.6949 102.55 65.8794 102.031 65.138C101.438 64.3225 101.067 63.3588 101.067 63.3588C101.067 63.3588 100.252 62.1726 98.3239 62.1726C96.3961 62.1726 97.1376 61.8019 95.8029 61.2088C94.4683 60.6157 95.2097 60.0226 94.6166 59.652C94.0234 59.2813 92.4663 57.502 92.4663 57.502L89.3521 56.5382C89.3521 56.5382 86.3863 56.3158 84.0877 55.5745C81.715 54.759 82.5306 53.7952 82.5306 53.7952V51.8676C82.5306 51.8676 80.3804 50.6815 78.2301 50.9039C76.0798 51.1263 72.9657 51.8676 72.9657 51.8676C72.9657 51.8676 72.595 50.5332 71.7052 49.4953C70.7413 48.6056 69.6291 50.7556 69.6291 50.7556C69.6291 50.7556 66.2925 48.6057 65.1061 48.235C63.9198 47.8643 64.3646 46.9005 62.3627 45.8626C60.3607 44.8247 62.3627 43.9351 62.3627 43.9351C62.3627 43.9351 61.1763 42.6006 60.5832 42.6006C59.99 42.6006 57.2465 42.6006 56.6534 42.6006C56.0602 42.6006 54.5031 41.6368 54.5031 41.6368L52.2046 41.192C52.2046 41.192 48.868 42.1558 47.904 41.192C46.9401 40.2283 44.1967 37.1145 44.1967 37.1145C44.1967 37.1145 42.8621 37.4852 40.7118 37.1145C38.5615 36.7439 37.5976 34.075 37.5976 34.075L36.0405 35.9284C36.0405 35.9284 35.4474 35.3353 33.6678 35.9284C31.8883 36.5215 29.9605 32.5922 29.1449 32.6664C28.3293 32.7405 25.8083 32.8146 24.8444 34.075C23.8805 35.3353 20.1731 34.075 20.1731 34.075C20.1731 34.075 13.7223 20.3598 12.6101 17.9133ZM89.9453 170.93C92.9853 178.048 111.003 185.387 113.005 185.535C115.007 185.684 112.041 166.927 112.041 166.927L109.743 163.072L107.963 161.886L105.59 163.072H102.995V161.738C102.995 161.738 101.661 161.738 100.622 161.738C99.5844 161.738 97.6566 161.738 97.6566 161.738H94.6907H92.9112L91.1317 160.403C91.1317 160.403 91.1317 160.403 88.9814 157.66C86.8311 154.917 84.5326 157.66 84.5326 157.66C84.5326 157.66 86.8311 163.813 89.9453 170.93Z" fill="#666768"/>
<path opacity="0.5" d="M47.0873 76.1086C47.0873 76.1086 77.8582 69.2139 106.108 84.7084C125.535 95.384 125.312 87.229 125.312 87.229C125.312 87.229 128.723 78.8516 129.242 75.8862C129.761 72.9949 131.392 60.6141 131.392 60.6141L131.763 57.8711V52.3109L131.392 46.7506C131.392 46.7506 132.653 50.6799 133.468 54.5349C134.358 58.4642 135.025 61.3555 134.432 62.3193C133.839 63.283 132.504 72.1794 132.579 72.7725C132.653 73.3655 130.947 80.7792 131.022 81.1499C131.096 81.5205 129.168 89.1566 131.541 88.9342C133.913 88.7117 137.621 77.1465 137.621 77.1465L140.067 65.5812L139.548 60.3176L140.067 48.6041C140.067 48.6041 141.254 59.4279 141.476 59.9469C141.699 60.54 142.811 63.4313 142.959 64.7658C143.182 66.1002 140.883 73.7362 140.735 74.4035C140.512 75.1448 138.14 81.1499 137.917 81.8912C137.769 82.6326 137.546 84.7825 137.769 85.5239C137.991 86.2653 139.919 85.8946 139.919 85.8946L144.442 80.3344L147.408 70.1036L148.446 59.1314C148.446 59.1314 149.929 63.5054 148.817 68.8432C147.705 74.181 148.372 76.4051 148.372 76.4051L149.929 78.9258L151.634 72.7725L153.562 67.8795L154.897 66.1743C154.897 66.1743 154.674 70.4001 153.859 73.069C153.043 75.7379 151.634 78.2585 151.634 79.7413C151.634 81.224 151.857 84.0412 151.709 85.0791C151.56 86.117 150.522 89.379 150.522 89.379L148.372 91.01C148.372 91.01 150.374 95.7547 154.526 99.3132C158.604 102.872 171.357 109.247 178.55 112.361C185.742 115.475 202.054 117.996 204.353 119.923C205.094 120.516 219.924 128.449 221.258 130.228C222.222 131.488 247.432 149.133 248.322 150.393C239.128 151.283 213.695 132.23 213.695 132.23C213.695 132.23 178.105 140.014 165.945 139.792C153.785 139.569 125.312 133.119 125.312 133.119C125.312 133.119 125.461 139.347 120.715 139.792C115.97 140.162 111.447 145.797 111.447 145.797C111.447 145.797 110.335 157.214 110.705 159.66C111.076 162.107 115.821 179.306 113.745 182.42C111.669 185.534 111.669 185.534 111.669 185.534C111.669 185.534 95.6535 180.27 88.5354 167.963C81.4173 155.657 76.746 124.371 76.746 124.371L77.1909 118.589L79.7861 113.844L63.2513 99.0167L47.0873 76.1086ZM205.465 106.06C212.361 109.915 234.382 130.599 234.382 130.599L257.442 119.849C257.442 119.849 287.694 122.37 291.03 120.813C294.367 119.256 295.183 106.801 295.183 106.801C295.183 106.801 310.531 103.465 316.092 105.022C321.653 106.579 352.721 140.088 353.833 141.126C354.945 142.238 363.25 149.281 370.071 150.615C376.893 151.95 377.708 147.724 377.856 144.759C378.005 141.793 365.622 115.697 364.065 111.323C362.508 106.949 359.839 91.01 359.839 91.01L358.875 65.1364C358.875 65.1364 355.909 85.7463 354.797 88.0445C353.61 90.4169 347.679 90.1945 337.521 94.7909C327.362 99.3874 313.423 98.0529 311.05 97.9046C308.677 97.7564 293.774 100.648 289.844 100.129C285.914 99.6098 271.159 102.056 269.528 102.501C267.897 102.872 264.486 104.873 260.556 105.244C256.626 105.615 248.841 107.839 248.841 107.839L250.917 109.322C250.917 109.322 257.887 112.139 258.406 113.028C258.925 113.918 253.66 114.437 250.843 114.511C248.025 114.585 231.639 111.62 228.228 110.582C224.817 109.544 218.218 105.392 210.804 101.686C203.389 97.9788 179.958 94.7168 179.958 94.7168C179.958 94.7168 198.644 102.205 205.465 106.06ZM35.5945 62.8382L51.462 73.8104L86.2368 75.812C86.2368 75.812 85.8661 70.5484 76.0046 62.8382C66.143 55.128 56.2074 52.4591 45.3078 51.273C39.1536 50.6057 30.1077 55.0539 30.1077 55.0539L35.5945 62.8382ZM284.209 81.0016H263.225L289.251 88.0445L284.209 81.0016ZM57.9869 31.1079C57.9869 31.1079 64.5118 31.9234 65.5499 31.8493C66.5879 31.7751 67.8484 33.4803 71.5558 33.4803C75.2631 33.4803 85.1246 32.9613 85.1246 32.9613L76.8202 27.92L57.9869 31.1079ZM197.902 46.7506C198.569 52.0143 186.335 51.7919 186.335 51.7919L203.389 59.5021C203.463 59.5762 197.235 41.487 197.902 46.7506Z" fill="#191919"/>
<path d="M13.6448 16.8758C13.6448 16.8758 13.3482 22.8808 17.3522 27.9962C22.839 34.8167 29.2898 21.9912 59.4676 34.0012C85.6414 44.3803 127.534 58.7627 127.534 58.7627C127.534 58.7627 131.835 76.333 158.75 82.7829C185.666 89.2327 231.414 100.279 228.893 92.8654C226.372 85.4518 253.436 94.0516 259.145 95.3119C278.053 99.3894 330.845 94.7188 322.911 92.9395L289.175 89.5293L257.885 80.9295L279.536 75.4434C279.536 75.4434 240.312 73.1452 235.122 71.2176C229.931 69.3642 180.03 49.9405 180.03 49.9405C180.03 49.9405 197.529 47.2716 197.158 41.489C196.788 35.7064 193.525 23.3256 195.231 13.169C196.936 3.01229 197.603 1.23302 196.417 1.45543C195.156 1.67784 188.187 2.04852 176.471 11.6121C164.756 21.1757 150.742 35.1133 147.48 34.965C144.44 34.8909 41.8206 5.9036 13.6448 16.8758Z" fill="url(#paint1_linear_7993_7456)"/>
<path d="M82.16 121.63C77.4887 122.816 84.2361 148.467 84.2361 148.467C84.2361 148.467 76.4507 125.188 77.1921 120.592C77.9336 116.07 79.9356 113.845 79.9356 113.845L91.28 119.406C91.28 119.406 86.8312 120.444 82.16 121.63ZM115.155 134.159C116.119 135.938 113.302 137.643 108.556 141.943C103.885 146.317 108.705 161.515 108.186 157.512C107.666 153.508 111.893 145.279 112.115 144.983C112.338 144.686 119.011 140.831 121.384 140.831C123.682 140.757 125.388 134.678 125.388 134.678C125.388 134.678 131.542 137.273 159.495 140.312C187.449 143.352 212.955 132.454 212.955 132.454C212.955 132.454 195.975 122.742 195.679 122.742C195.382 122.742 174.102 113.845 174.102 113.845C174.102 113.845 185.966 122.668 189.451 123.631C192.935 124.521 198.422 131.342 195.086 131.193C191.675 131.045 193.677 127.116 190.118 129.488C186.559 131.861 175.733 128.895 172.174 129.266C168.615 129.636 172.767 118.294 167.874 117.923C162.98 117.552 149.93 129.192 143.257 128.302C136.584 127.412 132.506 125.337 122.199 125.188C111.893 125.04 95.1357 120.963 95.1357 120.963C97.2118 123.78 114.191 132.454 115.155 134.159ZM232.604 127.931C237.053 128.821 256.924 117.701 256.924 117.701C256.924 117.701 243.504 118.22 241.724 119.554C238.091 122.297 235.422 120.592 231.343 119.035C227.34 117.478 215.624 111.696 215.624 111.696C215.624 111.696 228.081 127.042 232.604 127.931ZM267.453 113.92C267.453 113.92 273.459 113.252 276.87 113.845C280.28 114.439 272.347 114.142 271.828 115.328C271.309 116.514 274.868 119.554 279.761 119.851C284.655 120.147 291.847 121.259 291.402 117.626C290.958 113.994 292.366 107.173 292.366 107.173C292.366 107.173 272.717 110.583 267.453 113.92Z" fill="#0C0C0C"/>
<path d="M69.9995 27.1829L90.2416 34.0035L69.258 30.0001C68.4424 29.8519 67.9233 29.0364 68.0716 28.295C68.2199 27.5536 69.0355 26.9605 69.777 27.1088C69.8512 27.1088 69.9253 27.1829 69.9995 27.1829Z" fill="#0C0C0C"/>
<path d="M65.1057 29.5538C65.1057 29.5538 65.9213 31.5555 69.6287 32.4451C73.336 33.2606 78.2297 31.0365 78.2297 31.0365L70.6667 28.8866L65.1057 29.5538Z" fill="#0C0C0C"/>
<path d="M248.838 107.844C248.838 107.844 248.986 107.992 249.208 108.215C249.505 108.437 249.95 108.659 250.617 108.882C251.21 109.104 252.026 109.327 252.916 109.623C253.806 109.92 254.844 110.216 255.956 110.587C256.549 110.809 257.142 111.032 257.735 111.402C258.032 111.625 258.403 111.773 258.773 112.366C258.848 112.514 258.922 112.663 258.996 112.885C259.07 113.108 259.07 113.33 259.07 113.552C258.996 113.775 258.922 113.997 258.848 114.145C258.773 114.294 258.625 114.442 258.551 114.59C258.18 114.961 257.735 115.258 257.439 115.406C257.068 115.628 256.697 115.702 256.327 115.851L255.808 116.073H255.511L255.288 116.147C254.992 116.221 254.547 116.295 254.102 116.37C252.471 116.666 250.988 116.666 249.357 116.592C247.8 116.518 246.243 116.37 244.611 116.221C243.054 115.999 241.497 115.776 240.014 115.48C238.531 115.183 237.048 114.813 235.64 114.516C234.231 114.145 232.896 113.775 231.561 113.404C230.301 113.033 229.04 112.663 228.002 112.292C225.778 111.551 223.998 110.809 222.738 110.29C221.477 109.771 220.81 109.401 220.81 109.401C220.81 109.401 221.552 109.475 222.96 109.697C224.295 109.92 226.223 110.216 228.521 110.587C230.82 110.958 233.489 111.402 236.307 111.921C237.716 112.144 239.199 112.44 240.682 112.663C242.164 112.885 243.647 113.108 245.204 113.33C246.687 113.552 248.245 113.701 249.653 113.775C251.136 113.849 252.545 113.923 253.88 113.775C254.176 113.775 254.473 113.701 254.844 113.627L255.288 113.552L255.733 113.404C256.03 113.33 256.327 113.256 256.549 113.108C256.846 113.033 256.994 112.885 257.068 112.885C257.068 112.885 256.994 112.959 257.068 113.033C257.068 113.108 257.068 113.182 257.068 113.182V113.256C257.068 113.256 256.92 113.033 256.697 112.885C256.327 112.589 255.807 112.218 255.288 111.996C253.287 110.883 251.507 110.068 250.395 109.252C249.802 108.882 249.431 108.511 249.134 108.215C248.838 107.992 248.838 107.844 248.838 107.844Z" fill="#0C0C0C"/>
<path d="M81.2658 26.0716C81.2658 26.0716 80.895 26.294 80.3019 26.5906C79.7087 26.8871 78.8189 27.2578 77.7809 27.7026C75.7047 28.5181 72.813 29.4078 69.9213 30.075C67.0296 30.7422 64.0637 31.1129 61.7651 31.187C60.6529 31.2612 59.689 31.2612 59.0217 31.187C58.3544 31.187 57.9836 31.1129 57.9836 31.1129C57.9836 31.1129 58.3544 30.8905 58.9475 30.5939C59.5407 30.2974 60.4305 29.9267 61.4685 29.4819C63.5447 28.6664 66.4364 27.7768 69.3281 27.1095C72.2198 26.4423 75.1857 26.0716 77.4843 25.9975C78.5965 25.9234 79.5604 25.9234 80.2277 25.9975C80.895 25.9975 81.2658 26.0716 81.2658 26.0716Z" fill="#0C0C0C"/>
<path d="M123.974 90.3477C123.974 90.3477 124.049 90.1995 124.271 89.9029C124.493 89.6064 124.642 89.1616 124.938 88.6426C125.235 88.1236 125.457 87.3823 125.68 86.5668C125.902 85.7513 126.199 84.8617 126.421 83.8237C127.385 79.7463 128.052 74.186 128.794 68.6258C129.016 67.2172 129.165 65.8086 129.387 64.4742C129.61 63.0656 129.758 61.7312 130.129 60.3226C130.277 59.6553 130.425 59.1364 130.499 58.5433C130.573 57.9502 130.648 57.3571 130.722 56.764C130.796 55.5778 130.87 54.4658 130.87 53.4279C130.87 52.39 130.87 51.4262 130.944 50.5366C130.944 49.6469 131.092 48.9056 131.167 48.2384C131.315 46.978 131.537 46.3108 131.537 46.3108C131.537 46.3108 131.611 47.0522 131.76 48.2384C131.834 48.8315 131.982 49.5728 132.131 50.4625C132.279 51.2779 132.501 52.2417 132.65 53.3538C132.798 54.3917 132.946 55.5778 133.02 56.8382C133.02 57.5054 133.02 58.0985 133.02 58.8398C133.02 59.5071 132.872 60.3226 132.798 60.9157C132.575 62.1018 132.501 63.5104 132.353 64.8449C132.205 66.2535 132.056 67.662 131.908 69.0706C131.537 71.8878 131.092 74.705 130.425 77.3739C130.129 78.7084 129.758 79.9687 129.387 81.1548C129.016 82.341 128.571 83.4531 128.201 84.491C127.83 85.5289 127.311 86.4185 126.866 87.1599C126.421 87.9012 125.976 88.5685 125.531 89.0874C125.309 89.3098 125.161 89.5322 124.938 89.7546C124.79 89.9029 124.642 90.0512 124.493 90.1995C124.123 90.2736 123.974 90.3477 123.974 90.3477Z" fill="#0C0C0C"/>
<path d="M129.684 91.3856C129.684 91.3856 129.758 91.2374 129.98 90.9408C130.203 90.6443 130.425 90.1995 130.722 89.6805C131.018 89.0874 131.315 88.4202 131.686 87.6047C132.056 86.7892 132.427 85.8996 132.798 84.8617C133.169 83.8238 133.613 82.7117 133.984 81.5997C134.207 81.0066 134.429 80.4135 134.652 79.8204C134.874 79.2273 135.096 78.5601 135.245 77.967C135.615 76.6325 135.986 75.2981 136.357 73.9636C136.728 72.555 137.173 71.2206 137.543 69.812C137.766 69.1448 137.914 68.4034 138.136 67.7362C138.285 67.069 138.507 66.3276 138.655 65.7345C138.878 64.6966 138.655 63.5104 138.359 62.1018C138.285 61.7312 138.211 61.3605 138.136 60.9898C138.136 60.7674 138.062 60.6191 138.062 60.3967V59.8777C138.136 59.0622 138.136 58.4692 138.211 57.8761C138.359 56.6158 138.507 55.4296 138.655 54.3175C138.952 52.1676 139.323 50.3142 139.619 49.0539C139.916 47.7935 140.064 47.0522 140.064 47.0522C140.064 47.0522 140.138 47.7935 140.213 49.0539C140.287 50.3142 140.361 52.1676 140.361 54.3917C140.361 55.5037 140.435 56.6899 140.435 57.8761C140.435 58.4692 140.435 59.1364 140.509 59.7295V60.1743C140.509 60.3226 140.583 60.3967 140.583 60.545C140.657 60.8415 140.732 61.1381 140.806 61.4346C141.028 62.1018 141.176 62.7691 141.325 63.5846C141.399 63.9552 141.473 64.4001 141.473 64.8449C141.473 65.0673 141.473 65.3638 141.473 65.5121V65.8086C141.473 66.0311 141.473 66.0311 141.399 66.1793C141.251 66.9948 141.102 67.7362 140.88 68.4034C140.657 69.1448 140.509 69.812 140.287 70.5534C139.842 71.962 139.471 73.3705 139.026 74.705C138.581 76.1136 138.136 77.3739 137.617 78.7084C137.321 79.4497 137.098 80.0428 136.802 80.6359C136.505 81.229 136.209 81.8221 135.912 82.4152C135.319 83.5272 134.726 84.5651 134.207 85.5289C133.613 86.4927 133.094 87.3082 132.575 88.0495C132.056 88.7909 131.537 89.384 131.092 89.9029C130.87 90.1253 130.648 90.3477 130.499 90.5702C130.351 90.7184 130.129 90.8667 130.054 91.015C129.832 91.3115 129.684 91.3856 129.684 91.3856Z" fill="#0C0C0C"/>
<path d="M134.948 92.0529C134.948 92.0529 135.096 91.9787 135.319 91.7563C135.615 91.6081 135.912 91.3115 136.283 90.8667C136.653 90.496 137.098 89.9771 137.543 89.3098C137.988 88.6426 138.433 87.9754 138.878 87.0857C140.732 83.7496 142.437 78.9308 143.92 73.9636C144.291 72.7033 144.661 71.5171 145.106 70.2568C145.329 69.6637 145.477 69.0706 145.699 68.4034L145.848 67.9586L145.922 67.8103L146.144 67.1431C146.218 66.9948 146.218 66.9207 146.218 66.7724C146.441 65.7345 146.663 64.5483 146.812 63.4363C146.96 62.3242 147.108 61.2863 147.182 60.3226C147.405 58.395 147.627 56.764 147.775 55.5779C147.924 54.4658 147.998 53.7986 147.998 53.7986C147.998 53.7986 148.146 54.4658 148.369 55.5779C148.517 56.6899 148.814 58.395 148.888 60.3226C148.962 61.2863 149.036 62.3984 149.036 63.5104C149.036 64.6966 149.036 65.8086 148.814 67.2172C148.814 67.3655 148.739 67.5879 148.739 67.7362L148.665 68.181L148.591 68.4034L148.517 68.7L148.369 69.1448C148.22 69.7379 148.072 70.4051 147.924 70.9982C147.627 72.2585 147.256 73.5188 146.812 74.7791C145.996 77.2998 145.032 79.8204 143.994 82.0445C143.475 83.1565 142.882 84.2686 142.289 85.2323C141.695 86.1961 141.028 87.0857 140.361 87.9012C139.693 88.7167 139.026 89.384 138.433 89.9029C137.766 90.4219 137.173 90.8667 136.653 91.1632C136.431 91.3115 136.134 91.3857 135.912 91.5339C135.69 91.6081 135.541 91.6822 135.393 91.7563C135.096 92.0529 134.948 92.0529 134.948 92.0529Z" fill="#0C0C0C"/>
<path d="M140.138 92.0529C140.138 92.0529 140.287 91.9787 140.435 91.7563C140.657 91.6081 140.954 91.3115 141.325 90.9408C141.547 90.7926 141.695 90.5702 141.918 90.3477C142.14 90.1253 142.363 89.9029 142.585 89.6064C143.03 89.0874 143.549 88.4202 144.142 87.753C144.661 87.0857 145.255 86.2702 145.774 85.4547C146.293 84.6392 146.96 83.6755 147.405 82.86C147.553 81.8962 147.776 80.8583 147.924 79.8945C148.146 78.7084 148.369 77.5963 148.443 76.4843C148.665 75.0757 149.036 73.9636 149.407 72.7775C149.777 71.5913 150.297 70.4792 150.816 69.4413C151.112 68.9224 151.335 68.4034 151.705 67.8845C151.779 67.7362 152.002 67.4396 152.076 67.2172C152.224 66.9948 152.298 66.7724 152.447 66.55C152.892 65.6604 153.337 64.7707 153.781 64.0294C154.597 62.3984 155.264 61.0639 155.783 60.1743C156.302 59.2105 156.599 58.6916 156.599 58.6916C156.599 58.6916 156.525 59.2847 156.377 60.3226C156.154 61.3605 155.858 62.8432 155.413 64.6225C155.19 65.5121 154.894 66.4759 154.523 67.4396C154.449 67.6621 154.3 67.9586 154.226 68.2551C154.078 68.5517 154.004 68.7 153.856 69.0706C153.633 69.5155 153.485 69.9603 153.262 70.4792C152.892 71.443 152.521 72.555 152.224 73.6671C151.928 74.7791 151.557 75.8912 151.483 76.8549C151.335 78.1153 151.038 79.3014 150.816 80.4876C150.667 81.0807 150.519 81.6738 150.371 82.1928C150.296 82.4893 150.222 82.7858 150.148 83.0083L150 83.4531V83.6013L149.926 83.7496C149.926 83.8238 149.852 83.972 149.777 83.972L149.703 84.0462C148.962 85.0841 148.295 85.8996 147.553 86.7151C146.812 87.5306 146.07 88.1978 145.403 88.7909C144.735 89.384 143.994 89.9029 143.401 90.3477C142.808 90.7926 142.214 91.0891 141.695 91.3115C141.251 91.6081 140.806 91.6822 140.583 91.8305C140.287 91.9787 140.138 92.0529 140.138 92.0529Z" fill="#0C0C0C"/>
<path d="M43.6028 58.984L47.3102 62.3942V57.2788H48.1999L51.6848 62.9873L51.3883 56.834L51.6848 56.5375L55.1697 60.7632V56.834L57.0234 57.353V60.3926L58.3581 58.8357L61.1756 62.9132L60.7308 58.3167L62.0654 58.3909L63.4001 61.8753L64.2157 59.1322L69.7767 64.3959L68.8869 60.4667C68.8869 60.4667 78.6743 64.0994 80.6021 65.2114C82.5299 66.3235 92.6881 73.0699 92.6881 73.0699L101.586 79.2232C101.586 79.2232 105.59 81.5955 106.109 81.8179C106.628 82.0403 92.2432 77.7404 92.2432 77.7404L84.3095 74.9974L80.1572 69.8079L79.4158 74.8491L75.6343 69.7337L74.2996 73.5147H73.8548L70.8147 69.1406L68.3679 72.7733L66.5884 72.2544L67.7747 67.5096L63.8449 71.6613L62.8069 66.0269L61.1015 69.0665L59.841 67.2131L56.9493 72.3285L54.8732 72.7733L55.6888 68.3251L55.9854 65.7304L52.797 69.0665L50.9434 66.1752L48.9414 70.1785L40.8594 65.6562L38.116 62.5425L42.9355 64.0994L43.6028 58.984Z" fill="#0C0C0C"/>
<path d="M79.2704 74.7767L72.6713 73.8129L47.9804 74.4801L47.0907 71.9595L34.3374 61.6546C34.3374 61.6546 35.4496 55.9461 43.3833 55.2788C51.317 54.6116 54.6536 55.2788 54.6536 55.2788C54.6536 55.2788 60.4371 56.2426 63.922 57.5029C67.4069 58.8374 76.0079 62.6925 76.0079 62.6925L77.7133 63.8786C74.1543 62.4701 68.8898 60.4684 68.8898 60.4684L69.7055 64.4717L64.1444 59.2081L63.3288 61.9511L61.9942 58.4667L60.7337 58.3184L61.2527 62.9149L58.5093 58.8374L57.1746 60.3942V57.3547L55.321 56.8357V60.7649L51.8361 56.5392L51.5395 56.8357L51.8361 62.989L48.3512 57.2805H47.4614V62.3959L43.7541 58.9857L43.0867 64.1752L38.2672 62.6183L41.0106 65.7321L49.0926 70.2544L51.0946 66.251L52.9483 69.1423L56.1366 65.8062L55.84 68.401L55.0244 72.8491L57.1005 72.4043L59.9922 67.2889L61.2527 69.1423L62.9581 66.1027L63.9962 71.7371L67.9259 67.5855L66.7396 72.3302L68.5191 72.8491L70.966 69.2165L74.006 73.5905H74.4509L75.7855 69.8095L79.2704 74.7767ZM84.2382 75.0732L80.086 69.8837L79.3446 74.8508L86.7592 75.9629L84.2382 75.0732Z" fill="#AAAAAA"/>
<path d="M12.6094 17.9146C12.6094 17.9146 30.3305 55.2051 31.591 58.3188C33.4447 62.6929 49.6087 73.0719 49.6087 73.0719L46.717 75.5184C46.717 75.5184 57.2458 94.868 66.2176 101.466C75.1894 108.064 80.4538 112.957 80.4538 112.957C80.4538 112.957 76.9689 117.035 76.524 121.335C76.1533 125.635 84.3095 162.554 89.5739 169.597C94.8383 176.64 108.111 185.611 111.67 185.388C115.229 185.166 113.597 177.382 111.67 165.668C109.742 153.955 108.407 146.541 113.746 143.575C119.084 140.61 124.942 137.719 125.164 135.346C125.387 132.974 125.387 132.974 125.387 132.974C125.387 132.974 141.996 141.5 167.799 139.943C193.602 138.386 215.698 133.419 215.698 133.419C215.698 133.419 236.236 148.765 242.02 150.618C247.729 152.472 252.252 153.806 252.845 152.62C253.438 151.434 233.196 129.193 233.196 129.193L257.442 119.704C257.442 119.704 288.139 124.004 291.031 118.888C293.997 113.847 292.217 110.881 293.107 109.325C293.997 107.768 295.183 106.211 297.63 105.395C300.077 104.58 308.974 101.985 314.684 104.061C320.393 106.137 356.873 146.022 362.36 147.801C367.847 149.581 378.154 150.767 378.747 148.172C379.34 145.651 374.446 138.386 372.518 133.122C370.591 127.859 358.875 100.502 359.469 90.7164C360.062 80.9304 362.953 55.9465 361.026 45.4191C359.098 34.8918 352.647 13.6147 348.717 13.6147C344.787 13.6147 355.909 43.8623 338.93 64.398C321.95 84.9337 319.577 90.5681 312.385 90.7905C305.193 91.0129 290.289 89.6043 290.289 89.6043C290.289 89.6043 282.875 75.9633 280.354 75.3702C277.833 74.7771 241.278 73.2202 235.272 71.0703C229.192 68.9203 205.762 60.3205 205.762 60.3205C205.762 60.3205 196.864 41.9347 194.937 25.1799C193.528 13.0216 199.089 1.30808 197.754 0.789125C186.78 -3.43664 154.23 35.3366 144.443 35.9297C143.256 36.0038 112.782 25.1799 81.1953 20.1387C46.7911 14.5785 11.0523 14.8009 12.6094 17.9146Z" stroke="#0C0C0C" stroke-miterlimit="10" stroke-linecap="round" stroke-linejoin="round"/>
<path d="M124.645 135.196C124.645 135.196 124.2 134.973 123.384 134.603C122.569 134.232 121.456 133.639 120.048 132.972C117.23 131.637 113.523 129.932 109.815 128.153C106.108 126.374 102.326 124.668 99.583 123.26C98.1742 122.593 97.062 122 96.2464 121.555C95.8757 121.332 95.5791 121.184 95.3566 121.036C95.1342 120.887 95.0601 120.813 95.0601 120.813C95.0601 120.813 95.2084 120.887 95.4308 120.962C95.6532 121.036 95.9498 121.184 96.3947 121.332C97.2103 121.629 98.4708 122.074 99.8796 122.593C102.771 123.556 106.701 124.817 110.631 126.077C114.561 127.337 118.49 128.524 121.456 129.487C122.939 129.932 124.2 130.377 125.015 130.673C125.905 130.97 126.35 131.118 126.35 131.118C127.536 131.489 128.13 132.749 127.759 133.935C127.388 135.122 126.128 135.715 124.941 135.344C124.793 135.27 124.719 135.27 124.645 135.196Z" fill="#0C0C0C"/>
<path d="M81.7125 111.101C81.7125 111.101 82.3057 111.62 83.1213 112.362C83.9369 113.103 85.1233 114.067 86.3097 115.031C88.6082 116.958 90.9809 118.886 90.9809 118.886C90.9809 118.886 88.0892 117.996 85.1974 116.958C83.7887 116.439 82.3057 115.92 81.1935 115.55C80.0813 115.179 79.414 114.882 79.414 114.882C78.2276 114.438 77.6345 113.177 78.0793 111.991C78.5242 110.805 79.7847 110.212 80.9711 110.657C81.2677 110.805 81.4901 110.953 81.7125 111.101Z" fill="#0C0C0C"/>
<path d="M33.6671 63.9533C33.6671 63.9533 33.593 63.8792 33.5188 63.7309C33.4447 63.5826 33.3706 63.3602 33.2964 63.1378C33.2223 62.9154 33.1481 62.693 33.074 62.3965C32.9998 61.8034 32.9257 61.062 33.1481 60.3206C33.3706 59.5793 33.7413 58.8379 34.2603 58.1707C35.2984 56.9104 36.7813 55.9466 38.4125 55.2052C40.1179 54.4639 42.0457 53.9449 44.196 53.6484C48.4965 53.0553 53.4644 53.5001 58.358 55.2052C59.6185 55.6501 60.8049 56.0207 62.0654 56.4656C63.3259 56.9104 64.5864 57.3552 65.8469 57.8C68.3679 58.7638 70.8889 59.8758 73.3357 61.062C78.2294 63.4344 82.9748 66.2515 87.2012 69.0687C91.4275 71.8859 95.209 74.7772 98.5456 77.1496C100.177 78.3357 101.734 79.3737 103.217 80.1892C104.626 81.0788 105.886 81.746 106.998 82.265C108.036 82.7839 108.926 83.1546 109.519 83.377C110.113 83.5994 110.409 83.7477 110.409 83.7477C110.409 83.7477 110.113 83.5994 109.519 83.4511C108.926 83.2287 108.036 82.8581 106.998 82.4132C105.886 81.8943 104.626 81.2271 103.217 80.4116C101.808 79.5961 100.251 78.5582 98.5456 77.4461C95.1349 75.1479 91.3534 72.3307 87.0529 69.5877C82.8265 66.8446 78.0811 64.1016 73.1874 61.8034C70.7406 60.6913 68.2196 59.6534 65.6986 58.6896C64.4381 58.2448 63.1776 57.8 61.9912 57.3552C61.3981 57.1328 60.7307 56.9845 60.1376 56.7621L59.2478 56.4656C58.9512 56.3914 58.6546 56.3173 58.358 56.2432C53.4644 55.2052 48.719 55.4277 44.9375 56.3914C43.0838 56.9104 41.4526 57.5776 40.1921 58.319C38.9316 59.0603 38.0418 59.95 37.6711 60.5431C37.4486 60.8396 37.4486 61.1361 37.4486 61.2844C37.4486 61.4327 37.5228 61.4327 37.5228 61.5068C37.5228 61.5068 37.5228 61.581 37.5969 61.581C37.6711 61.7292 37.7452 61.8034 37.7452 61.8034C38.4125 62.8413 38.1901 64.1757 37.152 64.9171C36.114 65.5843 34.7793 65.3619 34.0379 64.324C33.7413 64.1016 33.7413 64.0275 33.6671 63.9533Z" fill="#0C0C0C"/>
<path d="M46.8653 72.7741C46.8653 72.7741 47.0877 72.6999 47.5326 72.5517C47.755 72.4775 47.9775 72.4034 48.3482 72.3292C48.6448 72.2551 49.0155 72.181 49.5346 72.0327C49.9795 71.9586 50.4985 71.8103 51.0175 71.7362C51.5365 71.662 52.1297 71.5879 52.7229 71.5137C53.3161 71.4396 53.9834 71.3655 54.6507 71.2913C55.318 71.2172 56.0595 71.2172 56.801 71.1431C57.5424 71.0689 58.2839 71.0689 59.0995 71.1431C59.9151 71.1431 60.7308 71.1431 61.5464 71.2172C63.1776 71.2913 64.9571 71.4396 66.7366 71.662C68.5162 71.8844 70.3698 72.1068 72.2235 72.4034C74.0772 72.6999 75.9309 73.0706 77.8587 73.4413C85.3475 74.9981 92.6139 77.1481 98.0266 78.9274C103.439 80.7066 106.924 82.1152 106.924 82.1152C106.924 82.1152 103.291 81.0032 97.8042 79.5946C92.3173 78.186 84.9026 76.6291 77.4879 75.5912C75.6343 75.3688 73.7806 75.1464 71.9269 74.924C70.0733 74.7757 68.2937 74.6275 66.5142 74.5533C64.7347 74.4792 63.1035 74.4792 61.4722 74.5533C60.6566 74.5533 59.9151 74.6275 59.1737 74.6275C58.4322 74.7016 57.6907 74.7016 57.0234 74.8499C56.3561 74.924 55.6888 74.9981 55.0956 75.0723C54.5024 75.1464 53.9092 75.2206 53.3902 75.3688C52.8712 75.5171 52.3522 75.5912 51.9073 75.6654C51.4624 75.8136 51.0917 75.8878 50.7209 76.0361C50.3502 76.1102 50.0536 76.2585 49.757 76.3326C49.4604 76.4067 49.1638 76.555 49.0155 76.6291C48.5707 76.7774 48.3482 76.8516 48.3482 76.8516C47.1619 77.2964 45.9014 76.7033 45.5306 75.5171C45.0858 74.3309 45.6789 73.0706 46.8653 72.6999C46.717 72.7741 46.7911 72.7741 46.8653 72.7741Z" fill="#0C0C0C"/>
</g>
</g>
<defs>
<filter id="filter0_d_7993_7456" x="-77.9398" y="-90.0328" width="547.236" height="365.925" filterUnits="userSpaceOnUse" color-interpolation-filters="sRGB">
<feFlood flood-opacity="0" result="BackgroundImageFix"/>
<feColorMatrix in="SourceAlpha" type="matrix" values="0 0 0 0 0 0 0 0 0 0 0 0 0 0 0 0 0 0 127 0" result="hardAlpha"/>
<feOffset/>
<feGaussianBlur stdDeviation="45"/>
<feComposite in2="hardAlpha" operator="out"/>
<feColorMatrix type="matrix" values="0 0 0 0 0 0 0 0 0 0 0 0 0 0 0 0 0 0 0.3 0"/>
<feBlend mode="normal" in2="BackgroundImageFix" result="effect1_dropShadow_7993_7456"/>
<feBlend mode="normal" in="SourceGraphic" in2="effect1_dropShadow_7993_7456" result="shape"/>
</filter>
<linearGradient id="paint0_linear_7993_7456" x1="0" y1="0" x2="256" y2="256" gradientUnits="userSpaceOnUse">
<stop stop-color="#303236"/>
<stop offset="1" stop-color="#14171A"/>
</linearGradient>
<linearGradient id="paint1_linear_7993_7456" x1="161.679" y1="83.4611" x2="182.976" y2="-1.96762" gradientUnits="userSpaceOnUse">
<stop stop-color="#A6A6A6" stop-opacity="0"/>
<stop offset="0.00974703" stop-color="#ADADAD" stop-opacity="0.01"/>
<stop offset="0.1486" stop-color="#C4C4C4" stop-opacity="0.1486"/>
<stop offset="0.2899" stop-color="#D9D9D9" stop-opacity="0.2899"/>
<stop offset="0.4313" stop-color="#E6E6E6" stop-opacity="0.4313"/>
<stop offset="0.5728" stop-color="#F1F1F1" stop-opacity="0.5728"/>
<stop offset="0.7145" stop-color="#F5F5F5" stop-opacity="0.7145"/>
<stop offset="0.8566" stop-color="#FEFEFE" stop-opacity="0.8566"/>
<stop offset="1" stop-color="#FEFEFE"/>
</linearGradient>
<clipPath id="clip0_7993_7456">
<rect width="132" height="132" rx="30" fill="white"/>
</clipPath>
</defs>
</svg>
