<svg width="133" height="133" viewBox="0 0 133 133" fill="none" xmlns="http://www.w3.org/2000/svg">
<rect width="132.197" height="132.197" rx="30" fill="url(#paint0_linear_7993_7453)"/>
<path d="M44.1659 47.3202C43.9033 46.7949 44.1659 46.2697 44.6912 46.2697H55.1969C55.4595 46.2697 55.4595 46.2697 55.7222 46.5323L72.006 65.7052C72.2687 65.9678 72.2687 66.2305 72.006 66.4931L55.7222 85.666C55.7222 85.666 55.4595 85.9287 55.1969 85.9287H44.6912C44.1659 85.9287 43.9033 85.4034 44.1659 84.8781L59.3992 66.2305C59.6618 65.9678 59.6618 65.7052 59.3992 65.4426L44.1659 47.3202ZM86.714 46.2697C87.2393 46.2697 87.5019 46.7949 87.2393 47.3202L73.8445 63.6041L67.8037 55.9874L75.683 46.5323C75.683 46.5323 75.9456 46.2697 76.2083 46.2697H86.714ZM67.5411 75.9483L75.683 85.666C75.683 85.9287 75.9456 85.9287 76.2083 85.9287H86.714C87.2393 85.9287 87.5019 85.4034 87.2393 84.8781L73.8445 68.5943L67.5411 75.9483Z" fill="#F5F5F5"/>
<defs>
<linearGradient id="paint0_linear_7993_7453" x1="132.197" y1="0" x2="1.57591e-05" y2="132.197" gradientUnits="userSpaceOnUse">
<stop stop-color="#54839A"/>
<stop offset="1" stop-color="#0A2330"/>
</linearGradient>
</defs>
</svg>
