<svg width="375" height="144" viewBox="0 0 375 144" fill="none" xmlns="http://www.w3.org/2000/svg">
<g filter="url(#filter0_d_7993_7491)">
<path d="M152.587 31H65.8099H40.3967L28 43.4V46.81V58.9V106.8L34.1983 113H65.8099H72.0083M294.793 31H307.19H338.802L345 37.2V100.6L332.603 113H307.19H288.595H243.967M345 82.31V94.4" stroke="#8EFCDC" stroke-linejoin="round"/>
</g>
<g filter="url(#filter1_d_7993_7491)">
<path d="M285.595 113H308.19L305.95 108.986H287.835L285.595 113Z" fill="#8EFCDC"/>
<path d="M31 49.0455L28 46.8058V62.8926L31 60.6529V49.0455Z" fill="#8EFCDC"/>
<path d="M341.141 80.5413L345 78.3017V94.3884L341.141 92.1488V80.5413Z" fill="#8EFCDC"/>
<path d="M285.595 113H308.19L305.95 108.986H287.835L285.595 113Z" stroke="#8EFCDC" stroke-linejoin="round"/>
<path d="M31 49.0455L28 46.8058V62.8926L31 60.6529V49.0455Z" stroke="#8EFCDC" stroke-linejoin="round"/>
<path d="M341.141 80.5413L345 78.3017V94.3884L341.141 92.1488V80.5413Z" stroke="#8EFCDC" stroke-linejoin="round"/>
</g>
<defs>
<filter id="filter0_d_7993_7491" x="-2.5" y="0.5" width="378" height="143" filterUnits="userSpaceOnUse" color-interpolation-filters="sRGB">
<feFlood flood-opacity="0" result="BackgroundImageFix"/>
<feColorMatrix in="SourceAlpha" type="matrix" values="0 0 0 0 0 0 0 0 0 0 0 0 0 0 0 0 0 0 127 0" result="hardAlpha"/>
<feOffset/>
<feGaussianBlur stdDeviation="15"/>
<feComposite in2="hardAlpha" operator="out"/>
<feColorMatrix type="matrix" values="0 0 0 0 0.556863 0 0 0 0 0.988235 0 0 0 0 0.862745 0 0 0 0.2 0"/>
<feBlend mode="normal" in2="BackgroundImageFix" result="effect1_dropShadow_7993_7491"/>
<feBlend mode="normal" in="SourceGraphic" in2="effect1_dropShadow_7993_7491" result="shape"/>
</filter>
<filter id="filter1_d_7993_7491" x="-2.5" y="16.3058" width="378" height="127.194" filterUnits="userSpaceOnUse" color-interpolation-filters="sRGB">
<feFlood flood-opacity="0" result="BackgroundImageFix"/>
<feColorMatrix in="SourceAlpha" type="matrix" values="0 0 0 0 0 0 0 0 0 0 0 0 0 0 0 0 0 0 127 0" result="hardAlpha"/>
<feOffset/>
<feGaussianBlur stdDeviation="15"/>
<feComposite in2="hardAlpha" operator="out"/>
<feColorMatrix type="matrix" values="0 0 0 0 0.556863 0 0 0 0 0.988235 0 0 0 0 0.862745 0 0 0 0.7 0"/>
<feBlend mode="normal" in2="BackgroundImageFix" result="effect1_dropShadow_7993_7491"/>
<feBlend mode="normal" in="SourceGraphic" in2="effect1_dropShadow_7993_7491" result="shape"/>
</filter>
</defs>
</svg>
